<?xml version="1.0" encoding="UTF-8" standalone="no"?>
<!DOCTYPE svg PUBLIC "-//W3C//DTD SVG 1.1//EN"
 "http://www.w3.org/Graphics/SVG/1.1/DTD/svg11.dtd">
<!-- Generated by graphviz version 12.2.1 (20250203.1708)
 -->
<!-- Title: Entity Relationship Diagram created by erdantic Pages: 1 -->
<svg width="338pt" height="168pt"
 viewBox="0.00 0.00 338.38 168.25" xmlns="http://www.w3.org/2000/svg" xmlns:xlink="http://www.w3.org/1999/xlink">
<g id="graph0" class="graph" transform="scale(1 1) rotate(0) translate(4 164.25)">
<title>Entity Relationship Diagram created by erdantic</title>
<polygon fill="white" stroke="none" points="-4,4 -4,-164.25 334.38,-164.25 334.38,4 -4,4"/>
<text text-anchor="middle" x="165.19" y="-5.95" font-family="Times New Roman,Times,Liberation Serif,serif" font-size="9.00" fill="#a8a8a8">Created by erdantic v1.1.0.post1 &lt;https://github.com/drivendataorg/erdantic&gt;</text>
<!-- roppy.core.models.MonomerSummary -->
<g id="node1" class="node">
<title>roppy.core.models.MonomerSummary</title>
<g id="a_node1"><a xlink:title="roppy.core.models.MonomerSummary&#10;&#10;Document Mapping class.&#10;&#10;Fields:&#10;&#10;&#45; `id` &#45; MongoDB document ObjectID &quot;_id&quot; field.&#10;Mapped to the PydanticObjectId class&#10;">
<polygon fill="none" stroke="black" points="0,-120.88 0,-136.62 132,-136.62 132,-120.88 0,-120.88"/>
<text text-anchor="start" x="32.25" y="-127.03" font-family="Times New Roman,Times,Liberation Serif,serif" font-weight="bold" font-size="8.00">MonomerSummary</text>
<polygon fill="none" stroke="black" points="0,-105.12 0,-120.88 62.25,-120.88 62.25,-105.12 0,-105.12"/>
<text text-anchor="start" x="6" y="-110.28" font-family="Times New Roman,Times,Liberation Serif,serif" font-size="8.00">polymerisations</text>
<polygon fill="none" stroke="black" points="62.25,-105.12 62.25,-120.88 132,-120.88 132,-105.12 62.25,-105.12"/>
<text text-anchor="start" x="65.25" y="-110.28" font-family="Times New Roman,Times,Liberation Serif,serif" font-size="8.00">list[Polymerisation]</text>
<polygon fill="none" stroke="black" points="0,-89.38 0,-105.12 62.25,-105.12 62.25,-89.38 0,-89.38"/>
<text text-anchor="start" x="24.37" y="-94.53" font-family="Times New Roman,Times,Liberation Serif,serif" font-size="8.00">data</text>
<polygon fill="none" stroke="black" points="62.25,-89.38 62.25,-105.12 132,-105.12 132,-89.38 62.25,-89.38"/>
<text text-anchor="start" x="73.87" y="-94.53" font-family="Times New Roman,Times,Liberation Serif,serif" font-size="8.00">list[DataRow]</text>
<polygon fill="none" stroke="black" points="0,-73.62 0,-89.38 62.25,-89.38 62.25,-73.62 0,-73.62"/>
<text text-anchor="start" x="3" y="-78.78" font-family="Times New Roman,Times,Liberation Serif,serif" font-size="8.00">has_experimental</text>
<polygon fill="none" stroke="black" points="62.25,-73.62 62.25,-89.38 132,-89.38 132,-73.62 62.25,-73.62"/>
<text text-anchor="start" x="90.37" y="-78.78" font-family="Times New Roman,Times,Liberation Serif,serif" font-size="8.00">bool</text>
<polygon fill="none" stroke="black" points="0,-57.88 0,-73.62 62.25,-73.62 62.25,-57.88 0,-57.88"/>
<text text-anchor="start" x="11.25" y="-63.02" font-family="Times New Roman,Times,Liberation Serif,serif" font-size="8.00">monomer_id</text>
<polygon fill="none" stroke="black" points="62.25,-57.88 62.25,-73.62 132,-73.62 132,-57.88 62.25,-57.88"/>
<text text-anchor="start" x="93" y="-63.02" font-family="Times New Roman,Times,Liberation Serif,serif" font-size="8.00">int</text>
<polygon fill="none" stroke="black" points="0,-42.12 0,-57.88 62.25,-57.88 62.25,-42.12 0,-42.12"/>
<text text-anchor="start" x="16.12" y="-47.27" font-family="Times New Roman,Times,Liberation Serif,serif" font-size="8.00">monomer</text>
<polygon fill="none" stroke="black" points="62.25,-42.12 62.25,-57.88 132,-57.88 132,-42.12 62.25,-42.12"/>
<text text-anchor="start" x="81.75" y="-47.27" font-family="Times New Roman,Times,Liberation Serif,serif" font-size="8.00">Monomer</text>
</a>
</g>
</g>
<!-- roppy.core.models.Polymerisation -->
<g id="node2" class="node">
<title>roppy.core.models.Polymerisation</title>
<g id="a_node2"><a xlink:title="roppy.core.models.Polymerisation&#10;&#10;Document Mapping class.&#10;&#10;Fields:&#10;&#10;&#45; `id` &#45; MongoDB document ObjectID &quot;_id&quot; field.&#10;Mapped to the PydanticObjectId class&#10;">
<polygon fill="none" stroke="black" points="219.38,-144.5 219.38,-160.25 330.38,-160.25 330.38,-144.5 219.38,-144.5"/>
<text text-anchor="start" x="249" y="-150.65" font-family="Times New Roman,Times,Liberation Serif,serif" font-weight="bold" font-size="8.00">Polymerisation</text>
<polygon fill="none" stroke="black" points="219.38,-128.75 219.38,-144.5 282.38,-144.5 282.38,-128.75 219.38,-128.75"/>
<text text-anchor="start" x="222.38" y="-133.9" font-family="Times New Roman,Times,Liberation Serif,serif" font-size="8.00">polymerisation_id</text>
<polygon fill="none" stroke="black" points="282.38,-128.75 282.38,-144.5 330.38,-144.5 330.38,-128.75 282.38,-128.75"/>
<text text-anchor="start" x="285.38" y="-133.9" font-family="Times New Roman,Times,Liberation Serif,serif" font-size="8.00">Optional[int]</text>
<polygon fill="none" stroke="black" points="219.38,-113 219.38,-128.75 282.38,-128.75 282.38,-113 219.38,-113"/>
<text text-anchor="start" x="244.12" y="-118.15" font-family="Times New Roman,Times,Liberation Serif,serif" font-size="8.00">type</text>
<polygon fill="none" stroke="black" points="282.38,-113 282.38,-128.75 330.38,-128.75 330.38,-113 282.38,-113"/>
<text text-anchor="start" x="285.38" y="-118.15" font-family="Times New Roman,Times,Liberation Serif,serif" font-size="8.00">Optional[str]</text>
<polygon fill="none" stroke="black" points="219.38,-97.25 219.38,-113 282.38,-113 282.38,-97.25 219.38,-97.25"/>
<text text-anchor="start" x="235.88" y="-102.4" font-family="Times New Roman,Times,Liberation Serif,serif" font-size="8.00">monomer</text>
<polygon fill="none" stroke="black" points="282.38,-97.25 282.38,-113 330.38,-113 330.38,-97.25 282.38,-97.25"/>
<text text-anchor="start" x="291" y="-102.4" font-family="Times New Roman,Times,Liberation Serif,serif" font-size="8.00">Monomer</text>
<polygon fill="none" stroke="black" points="219.38,-81.5 219.38,-97.25 282.38,-97.25 282.38,-81.5 219.38,-81.5"/>
<text text-anchor="start" x="238.12" y="-86.65" font-family="Times New Roman,Times,Liberation Serif,serif" font-size="8.00">initiator</text>
<polygon fill="none" stroke="black" points="282.38,-81.5 282.38,-97.25 330.38,-97.25 330.38,-81.5 282.38,-81.5"/>
<text text-anchor="start" x="293.25" y="-86.65" font-family="Times New Roman,Times,Liberation Serif,serif" font-size="8.00">Initiator</text>
<polygon fill="none" stroke="black" points="219.38,-65.75 219.38,-81.5 282.38,-81.5 282.38,-65.75 219.38,-65.75"/>
<text text-anchor="start" x="238.88" y="-70.9" font-family="Times New Roman,Times,Liberation Serif,serif" font-size="8.00">product</text>
<polygon fill="none" stroke="black" points="282.38,-65.75 282.38,-81.5 330.38,-81.5 330.38,-65.75 282.38,-65.75"/>
<text text-anchor="start" x="294" y="-70.9" font-family="Times New Roman,Times,Liberation Serif,serif" font-size="8.00">Product</text>
<polygon fill="none" stroke="black" points="219.38,-50 219.38,-65.75 282.38,-65.75 282.38,-50 219.38,-50"/>
<text text-anchor="start" x="232.88" y="-55.15" font-family="Times New Roman,Times,Liberation Serif,serif" font-size="8.00">parameters</text>
<polygon fill="none" stroke="black" points="282.38,-50 282.38,-65.75 330.38,-65.75 330.38,-50 282.38,-50"/>
<text text-anchor="start" x="288" y="-55.15" font-family="Times New Roman,Times,Liberation Serif,serif" font-size="8.00">Parameters</text>
<polygon fill="none" stroke="black" points="219.38,-34.25 219.38,-50 282.38,-50 282.38,-34.25 219.38,-34.25"/>
<text text-anchor="start" x="239.62" y="-39.4" font-family="Times New Roman,Times,Liberation Serif,serif" font-size="8.00">thermo</text>
<polygon fill="none" stroke="black" points="282.38,-34.25 282.38,-50 330.38,-50 330.38,-34.25 282.38,-34.25"/>
<text text-anchor="start" x="293.62" y="-39.4" font-family="Times New Roman,Times,Liberation Serif,serif" font-size="8.00">Thermo</text>
<polygon fill="none" stroke="black" points="219.38,-18.5 219.38,-34.25 282.38,-34.25 282.38,-18.5 219.38,-18.5"/>
<text text-anchor="start" x="236.25" y="-23.65" font-family="Times New Roman,Times,Liberation Serif,serif" font-size="8.00">metadata</text>
<polygon fill="none" stroke="black" points="282.38,-18.5 282.38,-34.25 330.38,-34.25 330.38,-18.5 282.38,-18.5"/>
<text text-anchor="start" x="291.38" y="-23.65" font-family="Times New Roman,Times,Liberation Serif,serif" font-size="8.00">Metadata</text>
</a>
</g>
</g>
<!-- roppy.core.models.MonomerSummary&#45;&gt;roppy.core.models.Polymerisation -->
<g id="edge1" class="edge">
<title>roppy.core.models.MonomerSummary:e&#45;&gt;roppy.core.models.Polymerisation:w</title>
<path fill="none" stroke="black" d="M141.02,-117.07C156.28,-123.94 187.29,-137.92 205.39,-146.07"/>
<polyline fill="none" stroke="black" points="132,-113 136.56,-115.05"/>
<polyline fill="none" stroke="black" points="136.56,-115.05 141.12,-117.11"/>
<polygon fill="black" stroke="black" points="209.95,-148.13 217.22,-156.34 214.82,-150.32 218.77,-152.1 218.77,-152.1 218.77,-152.1 214.82,-150.32 220.92,-148.13 209.95,-148.13"/>
<polyline fill="none" stroke="black" points="208.84,-147.63 204.28,-145.57"/>
</g>
</g>
</svg>
