<?xml version="1.0" encoding="UTF-8" standalone="no"?>
<!DOCTYPE svg PUBLIC "-//W3C//DTD SVG 1.1//EN"
 "http://www.w3.org/Graphics/SVG/1.1/DTD/svg11.dtd">
<!-- Generated by graphviz version 12.2.1 (20250203.1708)
 -->
<!-- Title: Entity Relationship Diagram created by erdantic Pages: 1 -->
<svg width="393pt" height="168pt"
 viewBox="0.00 0.00 392.75 168.25" xmlns="http://www.w3.org/2000/svg" xmlns:xlink="http://www.w3.org/1999/xlink">
<g id="graph0" class="graph" transform="scale(1 1) rotate(0) translate(4 164.25)">
<title>Entity Relationship Diagram created by erdantic</title>
<polygon fill="white" stroke="none" points="-4,4 -4,-164.25 388.75,-164.25 388.75,4 -4,4"/>
<text text-anchor="middle" x="192.38" y="-5.95" font-family="Times New Roman,Times,Liberation Serif,serif" font-size="9.00" fill="#a8a8a8">Created by erdantic v1.1.0.post1 &lt;https://github.com/drivendataorg/erdantic&gt;</text>
<!-- roppy.core.models.MonomerSummary -->
<g id="node1" class="node">
<title>roppy.core.models.MonomerSummary</title>
<g id="a_node1"><a xlink:title="roppy.core.models.MonomerSummary&#10;&#10;Document Mapping class.&#10;&#10;Fields:&#10;&#10;&#45; `id` &#45; MongoDB document ObjectID &quot;_id&quot; field.&#10;Mapped to the PydanticObjectId class&#10;">
<polygon fill="none" stroke="black" points="0,-113 0,-128.75 126,-128.75 126,-113 0,-113"/>
<text text-anchor="start" x="29.25" y="-119.15" font-family="Times New Roman,Times,Liberation Serif,serif" font-weight="bold" font-size="8.00">MonomerSummary</text>
<polygon fill="none" stroke="black" points="0,-97.25 0,-113 56.25,-113 56.25,-97.25 0,-97.25"/>
<text text-anchor="start" x="3" y="-102.4" font-family="Times New Roman,Times,Liberation Serif,serif" font-size="8.00">polymerisations</text>
<polygon fill="none" stroke="black" points="56.25,-97.25 56.25,-113 126,-113 126,-97.25 56.25,-97.25"/>
<text text-anchor="start" x="59.25" y="-102.4" font-family="Times New Roman,Times,Liberation Serif,serif" font-size="8.00">list[Polymerisation]</text>
<polygon fill="none" stroke="black" points="0,-81.5 0,-97.25 56.25,-97.25 56.25,-81.5 0,-81.5"/>
<text text-anchor="start" x="21.38" y="-86.65" font-family="Times New Roman,Times,Liberation Serif,serif" font-size="8.00">data</text>
<polygon fill="none" stroke="black" points="56.25,-81.5 56.25,-97.25 126,-97.25 126,-81.5 56.25,-81.5"/>
<text text-anchor="start" x="67.88" y="-86.65" font-family="Times New Roman,Times,Liberation Serif,serif" font-size="8.00">list[DataRow]</text>
<polygon fill="none" stroke="black" points="0,-65.75 0,-81.5 56.25,-81.5 56.25,-65.75 0,-65.75"/>
<text text-anchor="start" x="8.25" y="-70.9" font-family="Times New Roman,Times,Liberation Serif,serif" font-size="8.00">monomer_id</text>
<polygon fill="none" stroke="black" points="56.25,-65.75 56.25,-81.5 126,-81.5 126,-65.75 56.25,-65.75"/>
<text text-anchor="start" x="87" y="-70.9" font-family="Times New Roman,Times,Liberation Serif,serif" font-size="8.00">int</text>
<polygon fill="none" stroke="black" points="0,-50 0,-65.75 56.25,-65.75 56.25,-50 0,-50"/>
<text text-anchor="start" x="13.12" y="-55.15" font-family="Times New Roman,Times,Liberation Serif,serif" font-size="8.00">monomer</text>
<polygon fill="none" stroke="black" points="56.25,-50 56.25,-65.75 126,-65.75 126,-50 56.25,-50"/>
<text text-anchor="start" x="75.75" y="-55.15" font-family="Times New Roman,Times,Liberation Serif,serif" font-size="8.00">Monomer</text>
</a>
</g>
</g>
<!-- roppy.core.models.Polymerisation -->
<g id="node2" class="node">
<title>roppy.core.models.Polymerisation</title>
<g id="a_node2"><a xlink:title="roppy.core.models.Polymerisation&#10;&#10;Document Mapping class.&#10;&#10;Fields:&#10;&#10;&#45; `id` &#45; MongoDB document ObjectID &quot;_id&quot; field.&#10;Mapped to the PydanticObjectId class&#10;">
<polygon fill="none" stroke="black" points="198,-144.5 198,-160.25 384.75,-160.25 384.75,-144.5 198,-144.5"/>
<text text-anchor="start" x="265.5" y="-150.65" font-family="Times New Roman,Times,Liberation Serif,serif" font-weight="bold" font-size="8.00">Polymerisation</text>
<polygon fill="none" stroke="black" points="198,-128.75 198,-144.5 261,-144.5 261,-128.75 198,-128.75"/>
<text text-anchor="start" x="201" y="-133.9" font-family="Times New Roman,Times,Liberation Serif,serif" font-size="8.00">polymerisation_id</text>
<polygon fill="none" stroke="black" points="261,-128.75 261,-144.5 384.75,-144.5 384.75,-128.75 261,-128.75"/>
<text text-anchor="start" x="318.75" y="-133.9" font-family="Times New Roman,Times,Liberation Serif,serif" font-size="8.00">int</text>
<polygon fill="none" stroke="black" points="198,-113 198,-128.75 261,-128.75 261,-113 198,-113"/>
<text text-anchor="start" x="222.75" y="-118.15" font-family="Times New Roman,Times,Liberation Serif,serif" font-size="8.00">type</text>
<polygon fill="none" stroke="black" points="261,-113 261,-128.75 384.75,-128.75 384.75,-113 261,-113"/>
<text text-anchor="start" x="264" y="-118.15" font-family="Times New Roman,Times,Liberation Serif,serif" font-size="8.00">Literal[&#39;ROR&#39;, &#39;RER&#39;, &#39;ROP&#39;, &#39;RCE&#39;]</text>
<polygon fill="none" stroke="black" points="198,-97.25 198,-113 261,-113 261,-97.25 198,-97.25"/>
<text text-anchor="start" x="214.5" y="-102.4" font-family="Times New Roman,Times,Liberation Serif,serif" font-size="8.00">monomer</text>
<polygon fill="none" stroke="black" points="261,-97.25 261,-113 384.75,-113 384.75,-97.25 261,-97.25"/>
<text text-anchor="start" x="307.5" y="-102.4" font-family="Times New Roman,Times,Liberation Serif,serif" font-size="8.00">Monomer</text>
<polygon fill="none" stroke="black" points="198,-81.5 198,-97.25 261,-97.25 261,-81.5 198,-81.5"/>
<text text-anchor="start" x="216.75" y="-86.65" font-family="Times New Roman,Times,Liberation Serif,serif" font-size="8.00">initiator</text>
<polygon fill="none" stroke="black" points="261,-81.5 261,-97.25 384.75,-97.25 384.75,-81.5 261,-81.5"/>
<text text-anchor="start" x="309.75" y="-86.65" font-family="Times New Roman,Times,Liberation Serif,serif" font-size="8.00">Initiator</text>
<polygon fill="none" stroke="black" points="198,-65.75 198,-81.5 261,-81.5 261,-65.75 198,-65.75"/>
<text text-anchor="start" x="217.5" y="-70.9" font-family="Times New Roman,Times,Liberation Serif,serif" font-size="8.00">product</text>
<polygon fill="none" stroke="black" points="261,-65.75 261,-81.5 384.75,-81.5 384.75,-65.75 261,-65.75"/>
<text text-anchor="start" x="310.5" y="-70.9" font-family="Times New Roman,Times,Liberation Serif,serif" font-size="8.00">Product</text>
<polygon fill="none" stroke="black" points="198,-50 198,-65.75 261,-65.75 261,-50 198,-50"/>
<text text-anchor="start" x="211.5" y="-55.15" font-family="Times New Roman,Times,Liberation Serif,serif" font-size="8.00">parameters</text>
<polygon fill="none" stroke="black" points="261,-50 261,-65.75 384.75,-65.75 384.75,-50 261,-50"/>
<text text-anchor="start" x="304.5" y="-55.15" font-family="Times New Roman,Times,Liberation Serif,serif" font-size="8.00">Parameters</text>
<polygon fill="none" stroke="black" points="198,-34.25 198,-50 261,-50 261,-34.25 198,-34.25"/>
<text text-anchor="start" x="218.25" y="-39.4" font-family="Times New Roman,Times,Liberation Serif,serif" font-size="8.00">thermo</text>
<polygon fill="none" stroke="black" points="261,-34.25 261,-50 384.75,-50 384.75,-34.25 261,-34.25"/>
<text text-anchor="start" x="310.12" y="-39.4" font-family="Times New Roman,Times,Liberation Serif,serif" font-size="8.00">Thermo</text>
<polygon fill="none" stroke="black" points="198,-18.5 198,-34.25 261,-34.25 261,-18.5 198,-18.5"/>
<text text-anchor="start" x="214.88" y="-23.65" font-family="Times New Roman,Times,Liberation Serif,serif" font-size="8.00">metadata</text>
<polygon fill="none" stroke="black" points="261,-18.5 261,-34.25 384.75,-34.25 384.75,-18.5 261,-18.5"/>
<text text-anchor="start" x="307.88" y="-23.65" font-family="Times New Roman,Times,Liberation Serif,serif" font-size="8.00">Metadata</text>
</a>
</g>
</g>
<!-- roppy.core.models.MonomerSummary&#45;&gt;roppy.core.models.Polymerisation -->
<g id="edge1" class="edge">
<title>roppy.core.models.MonomerSummary:e&#45;&gt;roppy.core.models.Polymerisation:w</title>
<path fill="none" stroke="black" d="M134.26,-110.55C146.74,-118.74 170.52,-134.34 185.24,-144"/>
<polyline fill="none" stroke="black" points="126,-105.12 130.18,-107.87"/>
<polyline fill="none" stroke="black" points="130.18,-107.87 134.36,-110.61"/>
<polygon fill="black" stroke="black" points="189.36,-146.7 195.25,-155.95 193.82,-149.63 197.44,-152.01 197.44,-152.01 197.44,-152.01 193.82,-149.63 200.19,-148.43 189.36,-146.7"/>
<polyline fill="none" stroke="black" points="188.34,-146.04 184.16,-143.29"/>
</g>
</g>
</svg>
