<?xml version="1.0" encoding="UTF-8" standalone="no"?>
<!DOCTYPE svg PUBLIC "-//W3C//DTD SVG 1.1//EN"
 "http://www.w3.org/Graphics/SVG/1.1/DTD/svg11.dtd">
<!-- Generated by graphviz version 12.2.1 (20250203.1708)
 -->
<!-- Title: Entity Relationship Diagram created by erdantic Pages: 1 -->
<svg width="296pt" height="168pt"
 viewBox="0.00 0.00 296.25 168.25" xmlns="http://www.w3.org/2000/svg" xmlns:xlink="http://www.w3.org/1999/xlink">
<g id="graph0" class="graph" transform="scale(1 1) rotate(0) translate(4 164.25)">
<title>Entity Relationship Diagram created by erdantic</title>
<polygon fill="white" stroke="none" points="-4,4 -4,-164.25 292.25,-164.25 292.25,4 -4,4"/>
<text text-anchor="middle" x="144.12" y="-5.95" font-family="Times New Roman,Times,Liberation Serif,serif" font-size="9.00" fill="#a8a8a8">Created by erdantic v1.1.0.post1 &lt;https://github.com/drivendataorg/erdantic&gt;</text>
<!-- tropic.core.models.Polymerisation -->
<g id="node1" class="node">
<title>tropic.core.models.Polymerisation</title>
<g id="a_node1"><a xlink:title="tropic.core.models.Polymerisation&#10;&#10;Document Mapping class.&#10;&#10;Fields:&#10;&#10;&#45; `id` &#45; MongoDB document ObjectID &quot;_id&quot; field.&#10;Mapped to the PydanticObjectId class&#10;">
<polygon fill="none" stroke="black" points="88.62,-144.5 88.62,-160.25 199.62,-160.25 199.62,-144.5 88.62,-144.5"/>
<text text-anchor="start" x="118.25" y="-150.65" font-family="Times New Roman,Times,Liberation Serif,serif" font-weight="bold" font-size="8.00">Polymerisation</text>
<polygon fill="none" stroke="black" points="88.62,-128.75 88.62,-144.5 151.62,-144.5 151.62,-128.75 88.62,-128.75"/>
<text text-anchor="start" x="91.62" y="-133.9" font-family="Times New Roman,Times,Liberation Serif,serif" font-size="8.00">polymerisation_id</text>
<polygon fill="none" stroke="black" points="151.62,-128.75 151.62,-144.5 199.62,-144.5 199.62,-128.75 151.62,-128.75"/>
<text text-anchor="start" x="154.62" y="-133.9" font-family="Times New Roman,Times,Liberation Serif,serif" font-size="8.00">Optional[int]</text>
<polygon fill="none" stroke="black" points="88.62,-113 88.62,-128.75 151.62,-128.75 151.62,-113 88.62,-113"/>
<text text-anchor="start" x="113.38" y="-118.15" font-family="Times New Roman,Times,Liberation Serif,serif" font-size="8.00">type</text>
<polygon fill="none" stroke="black" points="151.62,-113 151.62,-128.75 199.62,-128.75 199.62,-113 151.62,-113"/>
<text text-anchor="start" x="154.62" y="-118.15" font-family="Times New Roman,Times,Liberation Serif,serif" font-size="8.00">Optional[str]</text>
<polygon fill="none" stroke="black" points="88.62,-97.25 88.62,-113 151.62,-113 151.62,-97.25 88.62,-97.25"/>
<text text-anchor="start" x="105.12" y="-102.4" font-family="Times New Roman,Times,Liberation Serif,serif" font-size="8.00">monomer</text>
<polygon fill="none" stroke="black" points="151.62,-97.25 151.62,-113 199.62,-113 199.62,-97.25 151.62,-97.25"/>
<text text-anchor="start" x="160.25" y="-102.4" font-family="Times New Roman,Times,Liberation Serif,serif" font-size="8.00">Monomer</text>
<polygon fill="none" stroke="black" points="88.62,-81.5 88.62,-97.25 151.62,-97.25 151.62,-81.5 88.62,-81.5"/>
<text text-anchor="start" x="107.38" y="-86.65" font-family="Times New Roman,Times,Liberation Serif,serif" font-size="8.00">initiator</text>
<polygon fill="none" stroke="black" points="151.62,-81.5 151.62,-97.25 199.62,-97.25 199.62,-81.5 151.62,-81.5"/>
<text text-anchor="start" x="162.5" y="-86.65" font-family="Times New Roman,Times,Liberation Serif,serif" font-size="8.00">Initiator</text>
<polygon fill="none" stroke="black" points="88.62,-65.75 88.62,-81.5 151.62,-81.5 151.62,-65.75 88.62,-65.75"/>
<text text-anchor="start" x="108.12" y="-70.9" font-family="Times New Roman,Times,Liberation Serif,serif" font-size="8.00">product</text>
<polygon fill="none" stroke="black" points="151.62,-65.75 151.62,-81.5 199.62,-81.5 199.62,-65.75 151.62,-65.75"/>
<text text-anchor="start" x="163.25" y="-70.9" font-family="Times New Roman,Times,Liberation Serif,serif" font-size="8.00">Product</text>
<polygon fill="none" stroke="black" points="88.62,-50 88.62,-65.75 151.62,-65.75 151.62,-50 88.62,-50"/>
<text text-anchor="start" x="102.12" y="-55.15" font-family="Times New Roman,Times,Liberation Serif,serif" font-size="8.00">parameters</text>
<polygon fill="none" stroke="black" points="151.62,-50 151.62,-65.75 199.62,-65.75 199.62,-50 151.62,-50"/>
<text text-anchor="start" x="157.25" y="-55.15" font-family="Times New Roman,Times,Liberation Serif,serif" font-size="8.00">Parameters</text>
<polygon fill="none" stroke="black" points="88.62,-34.25 88.62,-50 151.62,-50 151.62,-34.25 88.62,-34.25"/>
<text text-anchor="start" x="108.88" y="-39.4" font-family="Times New Roman,Times,Liberation Serif,serif" font-size="8.00">thermo</text>
<polygon fill="none" stroke="black" points="151.62,-34.25 151.62,-50 199.62,-50 199.62,-34.25 151.62,-34.25"/>
<text text-anchor="start" x="162.88" y="-39.4" font-family="Times New Roman,Times,Liberation Serif,serif" font-size="8.00">Thermo</text>
<polygon fill="none" stroke="black" points="88.62,-18.5 88.62,-34.25 151.62,-34.25 151.62,-18.5 88.62,-18.5"/>
<text text-anchor="start" x="105.5" y="-23.65" font-family="Times New Roman,Times,Liberation Serif,serif" font-size="8.00">metadata</text>
<polygon fill="none" stroke="black" points="151.62,-18.5 151.62,-34.25 199.62,-34.25 199.62,-18.5 151.62,-18.5"/>
<text text-anchor="start" x="160.62" y="-23.65" font-family="Times New Roman,Times,Liberation Serif,serif" font-size="8.00">Metadata</text>
</a>
</g>
</g>
</g>
</svg>
