<?xml version="1.0" encoding="UTF-8" standalone="no"?>
<!DOCTYPE svg PUBLIC "-//W3C//DTD SVG 1.1//EN"
 "http://www.w3.org/Graphics/SVG/1.1/DTD/svg11.dtd">
<!-- Generated by graphviz version 12.2.1 (20250203.1708)
 -->
<!-- Title: Entity Relationship Diagram created by erdantic Pages: 1 -->
<svg width="803pt" height="263pt"
 viewBox="0.00 0.00 802.62 262.75" xmlns="http://www.w3.org/2000/svg" xmlns:xlink="http://www.w3.org/1999/xlink">
<g id="graph0" class="graph" transform="scale(1 1) rotate(0) translate(4 258.75)">
<title>Entity Relationship Diagram created by erdantic</title>
<polygon fill="white" stroke="none" points="-4,4 -4,-258.75 798.62,-258.75 798.62,4 -4,4"/>
<text text-anchor="middle" x="397.31" y="-5.95" font-family="Times New Roman,Times,Liberation Serif,serif" font-size="9.00" fill="#a8a8a8">Created by erdantic v1.1.0.post1 &lt;https://github.com/drivendataorg/erdantic&gt;</text>
<!-- roppy.core.models.Initiator -->
<g id="node1" class="node">
<title>roppy.core.models.Initiator</title>
<g id="a_node1"><a xlink:title="roppy.core.models.Initiator&#10;&#10;Document Mapping class.&#10;&#10;Fields:&#10;&#10;&#45; `id` &#45; MongoDB document ObjectID &quot;_id&quot; field.&#10;Mapped to the PydanticObjectId class&#10;">
<polygon fill="none" stroke="black" points="0,-136.62 0,-152.38 74.25,-152.38 74.25,-136.62 0,-136.62"/>
<text text-anchor="start" x="22.5" y="-142.78" font-family="Times New Roman,Times,Liberation Serif,serif" font-weight="bold" font-size="8.00">Initiator</text>
<polygon fill="none" stroke="black" points="0,-120.88 0,-136.62 26.25,-136.62 26.25,-120.88 0,-120.88"/>
<text text-anchor="start" x="3" y="-126.03" font-family="Times New Roman,Times,Liberation Serif,serif" font-size="8.00">smiles</text>
<polygon fill="none" stroke="black" points="26.25,-120.88 26.25,-136.62 74.25,-136.62 74.25,-120.88 26.25,-120.88"/>
<text text-anchor="start" x="29.25" y="-126.03" font-family="Times New Roman,Times,Liberation Serif,serif" font-size="8.00">Optional[str]</text>
</a>
</g>
</g>
<!-- roppy.core.models.Metadata -->
<g id="node2" class="node">
<title>roppy.core.models.Metadata</title>
<g id="a_node2"><a xlink:title="roppy.core.models.Metadata&#10;&#10;!!! abstract &quot;Usage Documentation&quot;&#10; &#160;&#160;&#160;[Models](../concepts/models.md)&#10;&#10;A base class for creating Pydantic models.&#10;&#10;Attributes:&#10; &#160;&#160;&#160;__class_vars__: The names of the class variables defined on the model.&#10; &#160;&#160;&#160;__private_attributes__: Metadata about the private attributes of the model.&#10; &#160;&#160;&#160;__signature__: The synthesized `__init__` [`Signature`][inspect.Signature] of the model.&#10;&#10; &#160;&#160;&#160;__pydantic_complete__: Whether model building is completed, or if there are still undefined fields.&#10; &#160;&#160;&#160;__pydantic_core_schema__: The core schema of the model.&#10; &#160;&#160;&#160;__pydantic_custom_init__: Whether the model has a custom `__init__` function.&#10; &#160;&#160;&#160;__pydantic_decorators__: Metadata containing the decorators defined on the model.&#10; &#160;&#160;&#160;&#160;&#160;&#160;&#160;This replaces `Model.__validators__` and `Model.__root_validators__` from Pydantic V1.&#10; &#160;&#160;&#160;__pydantic_generic_metadata__: Metadata for generic models; contains data used for a similar purpose to&#10; &#160;&#160;&#160;&#160;&#160;&#160;&#160;__args__, __origin__, __parameters__ in typing&#45;module generics. May eventually be replaced by these.&#10; &#160;&#160;&#160;__pydantic_parent_namespace__: Parent namespace of the model, used for automatic rebuilding of models.&#10; &#160;&#160;&#160;__pydantic_post_init__: The name of the post&#45;init method for the model, if defined.&#10; &#160;&#160;&#160;__pydantic_root_model__: Whether the model is a [`RootModel`][pydantic.root_model.RootModel].&#10; &#160;&#160;&#160;__pydantic_serializer__: The `pydantic&#45;core` `SchemaSerializer` used to dump instances of the model.&#10; &#160;&#160;&#160;__pydantic_validator__: The `pydantic&#45;core` `SchemaValidator` used to validate instances of the model.&#10;&#10; &#160;&#160;&#160;__pydantic_fields__: A dictionary of field names and their corresponding [`FieldInfo`][pydantic.fields.FieldInfo] objects.&#10; &#160;&#160;&#160;__pydantic_computed_fields__: A dictionary of computed field names and their corresponding [`ComputedFieldInfo`][pydantic.fields.ComputedFieldInfo] objects.&#10;&#10; &#160;&#160;&#160;__pydantic_extra__: A dictionary containing extra values, if [`extra`][pydantic.config.ConfigDict.extra]&#10; &#160;&#160;&#160;&#160;&#160;&#160;&#160;is set to `&#39;allow&#39;`.&#10; &#160;&#160;&#160;__pydantic_fields_set__: The names of fields explicitly set during instantiation.&#10; &#160;&#160;&#160;__pydantic_private__: Values of private attributes set on the model instance.&#10;">
<polygon fill="none" stroke="black" points="109.88,-160.25 109.88,-176 198.38,-176 198.38,-160.25 109.88,-160.25"/>
<text text-anchor="start" x="137.62" y="-166.4" font-family="Times New Roman,Times,Liberation Serif,serif" font-weight="bold" font-size="8.00">Metadata</text>
<polygon fill="none" stroke="black" points="109.88,-144.5 109.88,-160.25 145.12,-160.25 145.12,-144.5 109.88,-144.5"/>
<text text-anchor="start" x="120.75" y="-149.65" font-family="Times New Roman,Times,Liberation Serif,serif" font-size="8.00">date</text>
<polygon fill="none" stroke="black" points="145.12,-144.5 145.12,-160.25 198.38,-160.25 198.38,-144.5 145.12,-144.5"/>
<text text-anchor="start" x="148.12" y="-149.65" font-family="Times New Roman,Times,Liberation Serif,serif" font-size="8.00">Optional[date]</text>
<polygon fill="none" stroke="black" points="109.88,-128.75 109.88,-144.5 145.12,-144.5 145.12,-128.75 109.88,-128.75"/>
<text text-anchor="start" x="112.88" y="-133.9" font-family="Times New Roman,Times,Liberation Serif,serif" font-size="8.00">comment</text>
<polygon fill="none" stroke="black" points="145.12,-128.75 145.12,-144.5 198.38,-144.5 198.38,-128.75 145.12,-128.75"/>
<text text-anchor="start" x="150.75" y="-133.9" font-family="Times New Roman,Times,Liberation Serif,serif" font-size="8.00">Optional[str]</text>
<polygon fill="none" stroke="black" points="109.88,-113 109.88,-128.75 145.12,-128.75 145.12,-113 109.88,-113"/>
<text text-anchor="start" x="122.62" y="-118.15" font-family="Times New Roman,Times,Liberation Serif,serif" font-size="8.00">doi</text>
<polygon fill="none" stroke="black" points="145.12,-113 145.12,-128.75 198.38,-128.75 198.38,-113 145.12,-113"/>
<text text-anchor="start" x="150.75" y="-118.15" font-family="Times New Roman,Times,Liberation Serif,serif" font-size="8.00">Optional[str]</text>
<polygon fill="none" stroke="black" points="109.88,-97.25 109.88,-113 145.12,-113 145.12,-97.25 109.88,-97.25"/>
<text text-anchor="start" x="123" y="-102.4" font-family="Times New Roman,Times,Liberation Serif,serif" font-size="8.00">url</text>
<polygon fill="none" stroke="black" points="145.12,-97.25 145.12,-113 198.38,-113 198.38,-97.25 145.12,-97.25"/>
<text text-anchor="start" x="150.75" y="-102.4" font-family="Times New Roman,Times,Liberation Serif,serif" font-size="8.00">Optional[str]</text>
</a>
</g>
</g>
<!-- roppy.core.models.Monomer -->
<g id="node3" class="node">
<title>roppy.core.models.Monomer</title>
<g id="a_node3"><a xlink:title="roppy.core.models.Monomer&#10;&#10;Document Mapping class.&#10;&#10;Fields:&#10;&#10;&#45; `id` &#45; MongoDB document ObjectID &quot;_id&quot; field.&#10;Mapped to the PydanticObjectId class&#10;">
<polygon fill="none" stroke="black" points="234,-136.62 234,-152.38 308.25,-152.38 308.25,-136.62 234,-136.62"/>
<text text-anchor="start" x="254.25" y="-142.78" font-family="Times New Roman,Times,Liberation Serif,serif" font-weight="bold" font-size="8.00">Monomer</text>
<polygon fill="none" stroke="black" points="234,-120.88 234,-136.62 260.25,-136.62 260.25,-120.88 234,-120.88"/>
<text text-anchor="start" x="237" y="-126.03" font-family="Times New Roman,Times,Liberation Serif,serif" font-size="8.00">smiles</text>
<polygon fill="none" stroke="black" points="260.25,-120.88 260.25,-136.62 308.25,-136.62 308.25,-120.88 260.25,-120.88"/>
<text text-anchor="start" x="263.25" y="-126.03" font-family="Times New Roman,Times,Liberation Serif,serif" font-size="8.00">Optional[str]</text>
</a>
</g>
</g>
<!-- roppy.core.models.Parameters -->
<g id="node4" class="node">
<title>roppy.core.models.Parameters</title>
<g id="a_node4"><a xlink:title="roppy.core.models.Parameters&#10;&#10;!!! abstract &quot;Usage Documentation&quot;&#10; &#160;&#160;&#160;[Models](../concepts/models.md)&#10;&#10;A base class for creating Pydantic models.&#10;&#10;Attributes:&#10; &#160;&#160;&#160;__class_vars__: The names of the class variables defined on the model.&#10; &#160;&#160;&#160;__private_attributes__: Metadata about the private attributes of the model.&#10; &#160;&#160;&#160;__signature__: The synthesized `__init__` [`Signature`][inspect.Signature] of the model.&#10;&#10; &#160;&#160;&#160;__pydantic_complete__: Whether model building is completed, or if there are still undefined fields.&#10; &#160;&#160;&#160;__pydantic_core_schema__: The core schema of the model.&#10; &#160;&#160;&#160;__pydantic_custom_init__: Whether the model has a custom `__init__` function.&#10; &#160;&#160;&#160;__pydantic_decorators__: Metadata containing the decorators defined on the model.&#10; &#160;&#160;&#160;&#160;&#160;&#160;&#160;This replaces `Model.__validators__` and `Model.__root_validators__` from Pydantic V1.&#10; &#160;&#160;&#160;__pydantic_generic_metadata__: Metadata for generic models; contains data used for a similar purpose to&#10; &#160;&#160;&#160;&#160;&#160;&#160;&#160;__args__, __origin__, __parameters__ in typing&#45;module generics. May eventually be replaced by these.&#10; &#160;&#160;&#160;__pydantic_parent_namespace__: Parent namespace of the model, used for automatic rebuilding of models.&#10; &#160;&#160;&#160;__pydantic_post_init__: The name of the post&#45;init method for the model, if defined.&#10; &#160;&#160;&#160;__pydantic_root_model__: Whether the model is a [`RootModel`][pydantic.root_model.RootModel].&#10; &#160;&#160;&#160;__pydantic_serializer__: The `pydantic&#45;core` `SchemaSerializer` used to dump instances of the model.&#10; &#160;&#160;&#160;__pydantic_validator__: The `pydantic&#45;core` `SchemaValidator` used to validate instances of the model.&#10;&#10; &#160;&#160;&#160;__pydantic_fields__: A dictionary of field names and their corresponding [`FieldInfo`][pydantic.fields.FieldInfo] objects.&#10; &#160;&#160;&#160;__pydantic_computed_fields__: A dictionary of computed field names and their corresponding [`ComputedFieldInfo`][pydantic.fields.ComputedFieldInfo] objects.&#10;&#10; &#160;&#160;&#160;__pydantic_extra__: A dictionary containing extra values, if [`extra`][pydantic.config.ConfigDict.extra]&#10; &#160;&#160;&#160;&#160;&#160;&#160;&#160;is set to `&#39;allow&#39;`.&#10; &#160;&#160;&#160;__pydantic_fields_set__: The names of fields explicitly set during instantiation.&#10; &#160;&#160;&#160;__pydantic_private__: Values of private attributes set on the model instance.&#10;">
<polygon fill="none" stroke="black" points="344.12,-239 344.12,-254.75 476.12,-254.75 476.12,-239 344.12,-239"/>
<text text-anchor="start" x="389.88" y="-245.15" font-family="Times New Roman,Times,Liberation Serif,serif" font-weight="bold" font-size="8.00">Parameters</text>
<polygon fill="none" stroke="black" points="344.12,-223.25 344.12,-239 421.38,-239 421.38,-223.25 344.12,-223.25"/>
<text text-anchor="start" x="357.25" y="-228.4" font-family="Times New Roman,Times,Liberation Serif,serif" font-size="8.00">is_experimental</text>
<polygon fill="none" stroke="black" points="421.38,-223.25 421.38,-239 476.12,-239 476.12,-223.25 421.38,-223.25"/>
<text text-anchor="start" x="442" y="-228.4" font-family="Times New Roman,Times,Liberation Serif,serif" font-size="8.00">bool</text>
<polygon fill="none" stroke="black" points="344.12,-207.5 344.12,-223.25 421.38,-223.25 421.38,-207.5 344.12,-207.5"/>
<text text-anchor="start" x="363.25" y="-212.65" font-family="Times New Roman,Times,Liberation Serif,serif" font-size="8.00">temperature</text>
<polygon fill="none" stroke="black" points="421.38,-207.5 421.38,-223.25 476.12,-223.25 476.12,-207.5 421.38,-207.5"/>
<text text-anchor="start" x="424.38" y="-212.65" font-family="Times New Roman,Times,Liberation Serif,serif" font-size="8.00">Optional[float]</text>
<polygon fill="none" stroke="black" points="344.12,-191.75 344.12,-207.5 421.38,-207.5 421.38,-191.75 344.12,-191.75"/>
<text text-anchor="start" x="369.25" y="-196.9" font-family="Times New Roman,Times,Liberation Serif,serif" font-size="8.00">pressure</text>
<polygon fill="none" stroke="black" points="421.38,-191.75 421.38,-207.5 476.12,-207.5 476.12,-191.75 421.38,-191.75"/>
<text text-anchor="start" x="424.38" y="-196.9" font-family="Times New Roman,Times,Liberation Serif,serif" font-size="8.00">Optional[float]</text>
<polygon fill="none" stroke="black" points="344.12,-176 344.12,-191.75 421.38,-191.75 421.38,-176 344.12,-176"/>
<text text-anchor="start" x="358.38" y="-181.15" font-family="Times New Roman,Times,Liberation Serif,serif" font-size="8.00">monomer_state</text>
<polygon fill="none" stroke="black" points="421.38,-176 421.38,-191.75 476.12,-191.75 476.12,-176 421.38,-176"/>
<text text-anchor="start" x="427.75" y="-181.15" font-family="Times New Roman,Times,Liberation Serif,serif" font-size="8.00">Optional[str]</text>
<polygon fill="none" stroke="black" points="344.12,-160.25 344.12,-176 421.38,-176 421.38,-160.25 344.12,-160.25"/>
<text text-anchor="start" x="360.25" y="-165.4" font-family="Times New Roman,Times,Liberation Serif,serif" font-size="8.00">polymer_state</text>
<polygon fill="none" stroke="black" points="421.38,-160.25 421.38,-176 476.12,-176 476.12,-160.25 421.38,-160.25"/>
<text text-anchor="start" x="427.75" y="-165.4" font-family="Times New Roman,Times,Liberation Serif,serif" font-size="8.00">Optional[str]</text>
<polygon fill="none" stroke="black" points="344.12,-144.5 344.12,-160.25 421.38,-160.25 421.38,-144.5 344.12,-144.5"/>
<text text-anchor="start" x="347.12" y="-149.65" font-family="Times New Roman,Times,Liberation Serif,serif" font-size="8.00">initial_monomer_conc</text>
<polygon fill="none" stroke="black" points="421.38,-144.5 421.38,-160.25 476.12,-160.25 476.12,-144.5 421.38,-144.5"/>
<text text-anchor="start" x="424.38" y="-149.65" font-family="Times New Roman,Times,Liberation Serif,serif" font-size="8.00">Optional[float]</text>
<polygon fill="none" stroke="black" points="344.12,-128.75 344.12,-144.5 421.38,-144.5 421.38,-128.75 344.12,-128.75"/>
<text text-anchor="start" x="349.75" y="-133.9" font-family="Times New Roman,Times,Liberation Serif,serif" font-size="8.00">bulk_monomer_conc</text>
<polygon fill="none" stroke="black" points="421.38,-128.75 421.38,-144.5 476.12,-144.5 476.12,-128.75 421.38,-128.75"/>
<text text-anchor="start" x="424.38" y="-133.9" font-family="Times New Roman,Times,Liberation Serif,serif" font-size="8.00">Optional[float]</text>
<polygon fill="none" stroke="black" points="344.12,-113 344.12,-128.75 421.38,-128.75 421.38,-113 344.12,-113"/>
<text text-anchor="start" x="371.5" y="-118.15" font-family="Times New Roman,Times,Liberation Serif,serif" font-size="8.00">solvent</text>
<polygon fill="none" stroke="black" points="421.38,-113 421.38,-128.75 476.12,-128.75 476.12,-113 421.38,-113"/>
<text text-anchor="start" x="427.75" y="-118.15" font-family="Times New Roman,Times,Liberation Serif,serif" font-size="8.00">Optional[str]</text>
<polygon fill="none" stroke="black" points="344.12,-97.25 344.12,-113 421.38,-113 421.38,-97.25 344.12,-97.25"/>
<text text-anchor="start" x="371.12" y="-102.4" font-family="Times New Roman,Times,Liberation Serif,serif" font-size="8.00">method</text>
<polygon fill="none" stroke="black" points="421.38,-97.25 421.38,-113 476.12,-113 476.12,-97.25 421.38,-97.25"/>
<text text-anchor="start" x="427.75" y="-102.4" font-family="Times New Roman,Times,Liberation Serif,serif" font-size="8.00">Optional[str]</text>
<polygon fill="none" stroke="black" points="344.12,-81.5 344.12,-97.25 421.38,-97.25 421.38,-81.5 344.12,-81.5"/>
<text text-anchor="start" x="366.62" y="-86.65" font-family="Times New Roman,Times,Liberation Serif,serif" font-size="8.00">functional</text>
<polygon fill="none" stroke="black" points="421.38,-81.5 421.38,-97.25 476.12,-97.25 476.12,-81.5 421.38,-81.5"/>
<text text-anchor="start" x="427.75" y="-86.65" font-family="Times New Roman,Times,Liberation Serif,serif" font-size="8.00">Optional[str]</text>
<polygon fill="none" stroke="black" points="344.12,-65.75 344.12,-81.5 421.38,-81.5 421.38,-65.75 344.12,-65.75"/>
<text text-anchor="start" x="368.5" y="-70.9" font-family="Times New Roman,Times,Liberation Serif,serif" font-size="8.00">basis_set</text>
<polygon fill="none" stroke="black" points="421.38,-65.75 421.38,-81.5 476.12,-81.5 476.12,-65.75 421.38,-65.75"/>
<text text-anchor="start" x="427.75" y="-70.9" font-family="Times New Roman,Times,Liberation Serif,serif" font-size="8.00">Optional[str]</text>
<polygon fill="none" stroke="black" points="344.12,-50 344.12,-65.75 421.38,-65.75 421.38,-50 344.12,-50"/>
<text text-anchor="start" x="366.62" y="-55.15" font-family="Times New Roman,Times,Liberation Serif,serif" font-size="8.00">dispersion</text>
<polygon fill="none" stroke="black" points="421.38,-50 421.38,-65.75 476.12,-65.75 476.12,-50 421.38,-50"/>
<text text-anchor="start" x="427.75" y="-55.15" font-family="Times New Roman,Times,Liberation Serif,serif" font-size="8.00">Optional[str]</text>
<polygon fill="none" stroke="black" points="344.12,-34.25 344.12,-50 421.38,-50 421.38,-34.25 344.12,-34.25"/>
<text text-anchor="start" x="366.62" y="-39.4" font-family="Times New Roman,Times,Liberation Serif,serif" font-size="8.00">forcefield</text>
<polygon fill="none" stroke="black" points="421.38,-34.25 421.38,-50 476.12,-50 476.12,-34.25 421.38,-34.25"/>
<text text-anchor="start" x="427.75" y="-39.4" font-family="Times New Roman,Times,Liberation Serif,serif" font-size="8.00">Optional[str]</text>
<polygon fill="none" stroke="black" points="344.12,-18.5 344.12,-34.25 421.38,-34.25 421.38,-18.5 344.12,-18.5"/>
<text text-anchor="start" x="359.88" y="-23.65" font-family="Times New Roman,Times,Liberation Serif,serif" font-size="8.00">solvent_model</text>
<polygon fill="none" stroke="black" points="421.38,-18.5 421.38,-34.25 476.12,-34.25 476.12,-18.5 421.38,-18.5"/>
<text text-anchor="start" x="427.75" y="-23.65" font-family="Times New Roman,Times,Liberation Serif,serif" font-size="8.00">Optional[str]</text>
</a>
</g>
</g>
<!-- roppy.core.models.Product -->
<g id="node5" class="node">
<title>roppy.core.models.Product</title>
<g id="a_node5"><a xlink:title="roppy.core.models.Product&#10;&#10;!!! abstract &quot;Usage Documentation&quot;&#10; &#160;&#160;&#160;[Models](../concepts/models.md)&#10;&#10;A base class for creating Pydantic models.&#10;&#10;Attributes:&#10; &#160;&#160;&#160;__class_vars__: The names of the class variables defined on the model.&#10; &#160;&#160;&#160;__private_attributes__: Metadata about the private attributes of the model.&#10; &#160;&#160;&#160;__signature__: The synthesized `__init__` [`Signature`][inspect.Signature] of the model.&#10;&#10; &#160;&#160;&#160;__pydantic_complete__: Whether model building is completed, or if there are still undefined fields.&#10; &#160;&#160;&#160;__pydantic_core_schema__: The core schema of the model.&#10; &#160;&#160;&#160;__pydantic_custom_init__: Whether the model has a custom `__init__` function.&#10; &#160;&#160;&#160;__pydantic_decorators__: Metadata containing the decorators defined on the model.&#10; &#160;&#160;&#160;&#160;&#160;&#160;&#160;This replaces `Model.__validators__` and `Model.__root_validators__` from Pydantic V1.&#10; &#160;&#160;&#160;__pydantic_generic_metadata__: Metadata for generic models; contains data used for a similar purpose to&#10; &#160;&#160;&#160;&#160;&#160;&#160;&#160;__args__, __origin__, __parameters__ in typing&#45;module generics. May eventually be replaced by these.&#10; &#160;&#160;&#160;__pydantic_parent_namespace__: Parent namespace of the model, used for automatic rebuilding of models.&#10; &#160;&#160;&#160;__pydantic_post_init__: The name of the post&#45;init method for the model, if defined.&#10; &#160;&#160;&#160;__pydantic_root_model__: Whether the model is a [`RootModel`][pydantic.root_model.RootModel].&#10; &#160;&#160;&#160;__pydantic_serializer__: The `pydantic&#45;core` `SchemaSerializer` used to dump instances of the model.&#10; &#160;&#160;&#160;__pydantic_validator__: The `pydantic&#45;core` `SchemaValidator` used to validate instances of the model.&#10;&#10; &#160;&#160;&#160;__pydantic_fields__: A dictionary of field names and their corresponding [`FieldInfo`][pydantic.fields.FieldInfo] objects.&#10; &#160;&#160;&#160;__pydantic_computed_fields__: A dictionary of computed field names and their corresponding [`ComputedFieldInfo`][pydantic.fields.ComputedFieldInfo] objects.&#10;&#10; &#160;&#160;&#160;__pydantic_extra__: A dictionary containing extra values, if [`extra`][pydantic.config.ConfigDict.extra]&#10; &#160;&#160;&#160;&#160;&#160;&#160;&#160;is set to `&#39;allow&#39;`.&#10; &#160;&#160;&#160;__pydantic_fields_set__: The names of fields explicitly set during instantiation.&#10; &#160;&#160;&#160;__pydantic_private__: Values of private attributes set on the model instance.&#10;">
<polygon fill="none" stroke="black" points="512.25,-176 512.25,-191.75 636,-191.75 636,-176 512.25,-176"/>
<text text-anchor="start" x="559.88" y="-182.15" font-family="Times New Roman,Times,Liberation Serif,serif" font-weight="bold" font-size="8.00">Product</text>
<polygon fill="none" stroke="black" points="512.25,-160.25 512.25,-176 581.25,-176 581.25,-160.25 512.25,-160.25"/>
<text text-anchor="start" x="536.62" y="-165.4" font-family="Times New Roman,Times,Liberation Serif,serif" font-size="8.00">smiles</text>
<polygon fill="none" stroke="black" points="581.25,-160.25 581.25,-176 636,-176 636,-160.25 581.25,-160.25"/>
<text text-anchor="start" x="587.62" y="-165.4" font-family="Times New Roman,Times,Liberation Serif,serif" font-size="8.00">Optional[str]</text>
<polygon fill="none" stroke="black" points="512.25,-144.5 512.25,-160.25 581.25,-160.25 581.25,-144.5 512.25,-144.5"/>
<text text-anchor="start" x="522.38" y="-149.65" font-family="Times New Roman,Times,Liberation Serif,serif" font-size="8.00">repeating_units</text>
<polygon fill="none" stroke="black" points="581.25,-144.5 581.25,-160.25 636,-160.25 636,-144.5 581.25,-144.5"/>
<text text-anchor="start" x="584.25" y="-149.65" font-family="Times New Roman,Times,Liberation Serif,serif" font-size="8.00">Optional[float]</text>
<polygon fill="none" stroke="black" points="512.25,-128.75 512.25,-144.5 581.25,-144.5 581.25,-128.75 512.25,-128.75"/>
<text text-anchor="start" x="527.25" y="-133.9" font-family="Times New Roman,Times,Liberation Serif,serif" font-size="8.00">deg_of_poly</text>
<polygon fill="none" stroke="black" points="581.25,-128.75 581.25,-144.5 636,-144.5 636,-128.75 581.25,-128.75"/>
<text text-anchor="start" x="584.25" y="-133.9" font-family="Times New Roman,Times,Liberation Serif,serif" font-size="8.00">Optional[float]</text>
<polygon fill="none" stroke="black" points="512.25,-113 512.25,-128.75 581.25,-128.75 581.25,-113 512.25,-113"/>
<text text-anchor="start" x="531.38" y="-118.15" font-family="Times New Roman,Times,Liberation Serif,serif" font-size="8.00">dispersity</text>
<polygon fill="none" stroke="black" points="581.25,-113 581.25,-128.75 636,-128.75 636,-113 581.25,-113"/>
<text text-anchor="start" x="584.25" y="-118.15" font-family="Times New Roman,Times,Liberation Serif,serif" font-size="8.00">Optional[float]</text>
<polygon fill="none" stroke="black" points="512.25,-97.25 512.25,-113 581.25,-113 581.25,-97.25 512.25,-97.25"/>
<text text-anchor="start" x="516.38" y="-102.4" font-family="Times New Roman,Times,Liberation Serif,serif" font-size="8.00">n_avg_molar_mass</text>
<polygon fill="none" stroke="black" points="581.25,-97.25 581.25,-113 636,-113 636,-97.25 581.25,-97.25"/>
<text text-anchor="start" x="584.25" y="-102.4" font-family="Times New Roman,Times,Liberation Serif,serif" font-size="8.00">Optional[float]</text>
<polygon fill="none" stroke="black" points="512.25,-81.5 512.25,-97.25 581.25,-97.25 581.25,-81.5 512.25,-81.5"/>
<text text-anchor="start" x="515.25" y="-86.65" font-family="Times New Roman,Times,Liberation Serif,serif" font-size="8.00">m_avg_molar_mass</text>
<polygon fill="none" stroke="black" points="581.25,-81.5 581.25,-97.25 636,-97.25 636,-81.5 581.25,-81.5"/>
<text text-anchor="start" x="584.25" y="-86.65" font-family="Times New Roman,Times,Liberation Serif,serif" font-size="8.00">Optional[float]</text>
</a>
</g>
</g>
<!-- roppy.core.models.Thermo -->
<g id="node6" class="node">
<title>roppy.core.models.Thermo</title>
<g id="a_node6"><a xlink:title="roppy.core.models.Thermo&#10;&#10;!!! abstract &quot;Usage Documentation&quot;&#10; &#160;&#160;&#160;[Models](../concepts/models.md)&#10;&#10;A base class for creating Pydantic models.&#10;&#10;Attributes:&#10; &#160;&#160;&#160;__class_vars__: The names of the class variables defined on the model.&#10; &#160;&#160;&#160;__private_attributes__: Metadata about the private attributes of the model.&#10; &#160;&#160;&#160;__signature__: The synthesized `__init__` [`Signature`][inspect.Signature] of the model.&#10;&#10; &#160;&#160;&#160;__pydantic_complete__: Whether model building is completed, or if there are still undefined fields.&#10; &#160;&#160;&#160;__pydantic_core_schema__: The core schema of the model.&#10; &#160;&#160;&#160;__pydantic_custom_init__: Whether the model has a custom `__init__` function.&#10; &#160;&#160;&#160;__pydantic_decorators__: Metadata containing the decorators defined on the model.&#10; &#160;&#160;&#160;&#160;&#160;&#160;&#160;This replaces `Model.__validators__` and `Model.__root_validators__` from Pydantic V1.&#10; &#160;&#160;&#160;__pydantic_generic_metadata__: Metadata for generic models; contains data used for a similar purpose to&#10; &#160;&#160;&#160;&#160;&#160;&#160;&#160;__args__, __origin__, __parameters__ in typing&#45;module generics. May eventually be replaced by these.&#10; &#160;&#160;&#160;__pydantic_parent_namespace__: Parent namespace of the model, used for automatic rebuilding of models.&#10; &#160;&#160;&#160;__pydantic_post_init__: The name of the post&#45;init method for the model, if defined.&#10; &#160;&#160;&#160;__pydantic_root_model__: Whether the model is a [`RootModel`][pydantic.root_model.RootModel].&#10; &#160;&#160;&#160;__pydantic_serializer__: The `pydantic&#45;core` `SchemaSerializer` used to dump instances of the model.&#10; &#160;&#160;&#160;__pydantic_validator__: The `pydantic&#45;core` `SchemaValidator` used to validate instances of the model.&#10;&#10; &#160;&#160;&#160;__pydantic_fields__: A dictionary of field names and their corresponding [`FieldInfo`][pydantic.fields.FieldInfo] objects.&#10; &#160;&#160;&#160;__pydantic_computed_fields__: A dictionary of computed field names and their corresponding [`ComputedFieldInfo`][pydantic.fields.ComputedFieldInfo] objects.&#10;&#10; &#160;&#160;&#160;__pydantic_extra__: A dictionary containing extra values, if [`extra`][pydantic.config.ConfigDict.extra]&#10; &#160;&#160;&#160;&#160;&#160;&#160;&#160;is set to `&#39;allow&#39;`.&#10; &#160;&#160;&#160;__pydantic_fields_set__: The names of fields explicitly set during instantiation.&#10; &#160;&#160;&#160;__pydantic_private__: Values of private attributes set on the model instance.&#10;">
<polygon fill="none" stroke="black" points="671.62,-152.38 671.62,-168.12 794.62,-168.12 794.62,-152.38 671.62,-152.38"/>
<text text-anchor="start" x="719.25" y="-158.53" font-family="Times New Roman,Times,Liberation Serif,serif" font-weight="bold" font-size="8.00">Thermo</text>
<polygon fill="none" stroke="black" points="671.62,-136.62 671.62,-152.38 739.88,-152.38 739.88,-136.62 671.62,-136.62"/>
<text text-anchor="start" x="694.12" y="-141.78" font-family="Times New Roman,Times,Liberation Serif,serif" font-size="8.00">delta_h</text>
<polygon fill="none" stroke="black" points="739.88,-136.62 739.88,-152.38 794.62,-152.38 794.62,-136.62 739.88,-136.62"/>
<text text-anchor="start" x="742.88" y="-141.78" font-family="Times New Roman,Times,Liberation Serif,serif" font-size="8.00">Optional[float]</text>
<polygon fill="none" stroke="black" points="671.62,-120.88 671.62,-136.62 739.88,-136.62 739.88,-120.88 671.62,-120.88"/>
<text text-anchor="start" x="694.5" y="-126.03" font-family="Times New Roman,Times,Liberation Serif,serif" font-size="8.00">delta_s</text>
<polygon fill="none" stroke="black" points="739.88,-120.88 739.88,-136.62 794.62,-136.62 794.62,-120.88 739.88,-120.88"/>
<text text-anchor="start" x="742.88" y="-126.03" font-family="Times New Roman,Times,Liberation Serif,serif" font-size="8.00">Optional[float]</text>
<polygon fill="none" stroke="black" points="671.62,-105.12 671.62,-120.88 739.88,-120.88 739.88,-105.12 671.62,-105.12"/>
<text text-anchor="start" x="674.62" y="-110.28" font-family="Times New Roman,Times,Liberation Serif,serif" font-size="8.00">ceil_temp_reported</text>
<polygon fill="none" stroke="black" points="739.88,-105.12 739.88,-120.88 794.62,-120.88 794.62,-105.12 739.88,-105.12"/>
<text text-anchor="start" x="742.88" y="-110.28" font-family="Times New Roman,Times,Liberation Serif,serif" font-size="8.00">Optional[float]</text>
</a>
</g>
</g>
</g>
</svg>
