<?xml version="1.0" encoding="UTF-8" standalone="no"?>
<!DOCTYPE svg PUBLIC "-//W3C//DTD SVG 1.1//EN"
 "http://www.w3.org/Graphics/SVG/1.1/DTD/svg11.dtd">
<!-- Generated by graphviz version 12.2.1 (20250203.1708)
 -->
<!-- Title: Entity Relationship Diagram created by erdantic Pages: 1 -->
<svg width="910pt" height="279pt"
 viewBox="0.00 0.00 910.25 278.50" xmlns="http://www.w3.org/2000/svg" xmlns:xlink="http://www.w3.org/1999/xlink">
<g id="graph0" class="graph" transform="scale(1 1) rotate(0) translate(4 274.5)">
<title>Entity Relationship Diagram created by erdantic</title>
<polygon fill="white" stroke="none" points="-4,4 -4,-274.5 906.25,-274.5 906.25,4 -4,4"/>
<text text-anchor="middle" x="451.12" y="-5.95" font-family="Times New Roman,Times,Liberation Serif,serif" font-size="9.00" fill="#a8a8a8">Created by erdantic v1.1.0.post1 &lt;https://github.com/drivendataorg/erdantic&gt;</text>
<!-- roppy.core.models.Initiator -->
<g id="node1" class="node">
<title>roppy.core.models.Initiator</title>
<g id="a_node1"><a xlink:title="roppy.core.models.Initiator&#10;&#10;Document Mapping class.&#10;&#10;Fields:&#10;&#10;&#45; `id` &#45; MongoDB document ObjectID &quot;_id&quot; field.&#10;Mapped to the PydanticObjectId class&#10;">
<polygon fill="none" stroke="black" points="0,-191.75 0,-207.5 127.5,-207.5 127.5,-191.75 0,-191.75"/>
<text text-anchor="start" x="49.12" y="-197.9" font-family="Times New Roman,Times,Liberation Serif,serif" font-weight="bold" font-size="8.00">Initiator</text>
<polygon fill="none" stroke="black" points="0,-176 0,-191.75 63.75,-191.75 63.75,-176 0,-176"/>
<text text-anchor="start" x="21.75" y="-181.15" font-family="Times New Roman,Times,Liberation Serif,serif" font-size="8.00">smiles</text>
<polygon fill="none" stroke="black" points="63.75,-176 63.75,-191.75 127.5,-191.75 127.5,-176 63.75,-176"/>
<text text-anchor="start" x="74.62" y="-181.15" font-family="Times New Roman,Times,Liberation Serif,serif" font-size="8.00">Optional[str]</text>
<polygon fill="none" stroke="black" points="0,-160.25 0,-176 63.75,-176 63.75,-160.25 0,-160.25"/>
<text text-anchor="start" x="24" y="-165.4" font-family="Times New Roman,Times,Liberation Serif,serif" font-size="8.00">inchi</text>
<polygon fill="none" stroke="black" points="63.75,-160.25 63.75,-176 127.5,-176 127.5,-160.25 63.75,-160.25"/>
<text text-anchor="start" x="74.62" y="-165.4" font-family="Times New Roman,Times,Liberation Serif,serif" font-size="8.00">Optional[str]</text>
<polygon fill="none" stroke="black" points="0,-144.5 0,-160.25 63.75,-160.25 63.75,-144.5 0,-144.5"/>
<text text-anchor="start" x="3" y="-149.65" font-family="Times New Roman,Times,Liberation Serif,serif" font-size="8.00">molecular_weight</text>
<polygon fill="none" stroke="black" points="63.75,-144.5 63.75,-160.25 127.5,-160.25 127.5,-144.5 63.75,-144.5"/>
<text text-anchor="start" x="71.25" y="-149.65" font-family="Times New Roman,Times,Liberation Serif,serif" font-size="8.00">Optional[float]</text>
<polygon fill="none" stroke="black" points="0,-128.75 0,-144.5 63.75,-144.5 63.75,-128.75 0,-128.75"/>
<text text-anchor="start" x="3.38" y="-133.9" font-family="Times New Roman,Times,Liberation Serif,serif" font-size="8.00">functional_groups</text>
<polygon fill="none" stroke="black" points="63.75,-128.75 63.75,-144.5 127.5,-144.5 127.5,-128.75 63.75,-128.75"/>
<text text-anchor="start" x="66.75" y="-133.9" font-family="Times New Roman,Times,Liberation Serif,serif" font-size="8.00">Optional[list[str]]</text>
<polygon fill="none" stroke="black" points="0,-113 0,-128.75 63.75,-128.75 63.75,-113 0,-113"/>
<text text-anchor="start" x="12.75" y="-118.15" font-family="Times New Roman,Times,Liberation Serif,serif" font-size="8.00">iupac_name</text>
<polygon fill="none" stroke="black" points="63.75,-113 63.75,-128.75 127.5,-128.75 127.5,-113 63.75,-113"/>
<text text-anchor="start" x="74.62" y="-118.15" font-family="Times New Roman,Times,Liberation Serif,serif" font-size="8.00">Optional[str]</text>
<polygon fill="none" stroke="black" points="0,-97.25 0,-113 63.75,-113 63.75,-97.25 0,-97.25"/>
<text text-anchor="start" x="7.88" y="-102.4" font-family="Times New Roman,Times,Liberation Serif,serif" font-size="8.00">common_name</text>
<polygon fill="none" stroke="black" points="63.75,-97.25 63.75,-113 127.5,-113 127.5,-97.25 63.75,-97.25"/>
<text text-anchor="start" x="74.62" y="-102.4" font-family="Times New Roman,Times,Liberation Serif,serif" font-size="8.00">Optional[str]</text>
<polygon fill="none" stroke="black" points="0,-81.5 0,-97.25 63.75,-97.25 63.75,-81.5 0,-81.5"/>
<text text-anchor="start" x="26.25" y="-86.65" font-family="Times New Roman,Times,Liberation Serif,serif" font-size="8.00">xyz</text>
<polygon fill="none" stroke="black" points="63.75,-81.5 63.75,-97.25 127.5,-97.25 127.5,-81.5 63.75,-81.5"/>
<text text-anchor="start" x="74.62" y="-86.65" font-family="Times New Roman,Times,Liberation Serif,serif" font-size="8.00">Optional[str]</text>
</a>
</g>
</g>
<!-- roppy.core.models.Metadata -->
<g id="node2" class="node">
<title>roppy.core.models.Metadata</title>
<g id="a_node2"><a xlink:title="roppy.core.models.Metadata&#10;&#10;!!! abstract &quot;Usage Documentation&quot;&#10; &#160;&#160;&#160;[Models](../concepts/models.md)&#10;&#10;A base class for creating Pydantic models.&#10;&#10;Attributes:&#10; &#160;&#160;&#160;__class_vars__: The names of the class variables defined on the model.&#10; &#160;&#160;&#160;__private_attributes__: Metadata about the private attributes of the model.&#10; &#160;&#160;&#160;__signature__: The synthesized `__init__` [`Signature`][inspect.Signature] of the model.&#10;&#10; &#160;&#160;&#160;__pydantic_complete__: Whether model building is completed, or if there are still undefined fields.&#10; &#160;&#160;&#160;__pydantic_core_schema__: The core schema of the model.&#10; &#160;&#160;&#160;__pydantic_custom_init__: Whether the model has a custom `__init__` function.&#10; &#160;&#160;&#160;__pydantic_decorators__: Metadata containing the decorators defined on the model.&#10; &#160;&#160;&#160;&#160;&#160;&#160;&#160;This replaces `Model.__validators__` and `Model.__root_validators__` from Pydantic V1.&#10; &#160;&#160;&#160;__pydantic_generic_metadata__: Metadata for generic models; contains data used for a similar purpose to&#10; &#160;&#160;&#160;&#160;&#160;&#160;&#160;__args__, __origin__, __parameters__ in typing&#45;module generics. May eventually be replaced by these.&#10; &#160;&#160;&#160;__pydantic_parent_namespace__: Parent namespace of the model, used for automatic rebuilding of models.&#10; &#160;&#160;&#160;__pydantic_post_init__: The name of the post&#45;init method for the model, if defined.&#10; &#160;&#160;&#160;__pydantic_root_model__: Whether the model is a [`RootModel`][pydantic.root_model.RootModel].&#10; &#160;&#160;&#160;__pydantic_serializer__: The `pydantic&#45;core` `SchemaSerializer` used to dump instances of the model.&#10; &#160;&#160;&#160;__pydantic_validator__: The `pydantic&#45;core` `SchemaValidator` used to validate instances of the model.&#10;&#10; &#160;&#160;&#160;__pydantic_fields__: A dictionary of field names and their corresponding [`FieldInfo`][pydantic.fields.FieldInfo] objects.&#10; &#160;&#160;&#160;__pydantic_computed_fields__: A dictionary of computed field names and their corresponding [`ComputedFieldInfo`][pydantic.fields.ComputedFieldInfo] objects.&#10;&#10; &#160;&#160;&#160;__pydantic_extra__: A dictionary containing extra values, if [`extra`][pydantic.config.ConfigDict.extra]&#10; &#160;&#160;&#160;&#160;&#160;&#160;&#160;is set to `&#39;allow&#39;`.&#10; &#160;&#160;&#160;__pydantic_fields_set__: The names of fields explicitly set during instantiation.&#10; &#160;&#160;&#160;__pydantic_private__: Values of private attributes set on the model instance.&#10;">
<polygon fill="none" stroke="black" points="163.5,-168.12 163.5,-183.88 252,-183.88 252,-168.12 163.5,-168.12"/>
<text text-anchor="start" x="191.25" y="-174.28" font-family="Times New Roman,Times,Liberation Serif,serif" font-weight="bold" font-size="8.00">Metadata</text>
<polygon fill="none" stroke="black" points="163.5,-152.38 163.5,-168.12 198.75,-168.12 198.75,-152.38 163.5,-152.38"/>
<text text-anchor="start" x="174.38" y="-157.53" font-family="Times New Roman,Times,Liberation Serif,serif" font-size="8.00">date</text>
<polygon fill="none" stroke="black" points="198.75,-152.38 198.75,-168.12 252,-168.12 252,-152.38 198.75,-152.38"/>
<text text-anchor="start" x="201.75" y="-157.53" font-family="Times New Roman,Times,Liberation Serif,serif" font-size="8.00">Optional[date]</text>
<polygon fill="none" stroke="black" points="163.5,-136.62 163.5,-152.38 198.75,-152.38 198.75,-136.62 163.5,-136.62"/>
<text text-anchor="start" x="166.5" y="-141.78" font-family="Times New Roman,Times,Liberation Serif,serif" font-size="8.00">comment</text>
<polygon fill="none" stroke="black" points="198.75,-136.62 198.75,-152.38 252,-152.38 252,-136.62 198.75,-136.62"/>
<text text-anchor="start" x="204.38" y="-141.78" font-family="Times New Roman,Times,Liberation Serif,serif" font-size="8.00">Optional[str]</text>
<polygon fill="none" stroke="black" points="163.5,-120.88 163.5,-136.62 198.75,-136.62 198.75,-120.88 163.5,-120.88"/>
<text text-anchor="start" x="176.25" y="-126.03" font-family="Times New Roman,Times,Liberation Serif,serif" font-size="8.00">doi</text>
<polygon fill="none" stroke="black" points="198.75,-120.88 198.75,-136.62 252,-136.62 252,-120.88 198.75,-120.88"/>
<text text-anchor="start" x="204.38" y="-126.03" font-family="Times New Roman,Times,Liberation Serif,serif" font-size="8.00">Optional[str]</text>
<polygon fill="none" stroke="black" points="163.5,-105.12 163.5,-120.88 198.75,-120.88 198.75,-105.12 163.5,-105.12"/>
<text text-anchor="start" x="176.62" y="-110.28" font-family="Times New Roman,Times,Liberation Serif,serif" font-size="8.00">url</text>
<polygon fill="none" stroke="black" points="198.75,-105.12 198.75,-120.88 252,-120.88 252,-105.12 198.75,-105.12"/>
<text text-anchor="start" x="204.38" y="-110.28" font-family="Times New Roman,Times,Liberation Serif,serif" font-size="8.00">Optional[str]</text>
</a>
</g>
</g>
<!-- roppy.core.models.Monomer -->
<g id="node3" class="node">
<title>roppy.core.models.Monomer</title>
<g id="a_node3"><a xlink:title="roppy.core.models.Monomer&#10;&#10;Document Mapping class.&#10;&#10;Fields:&#10;&#10;&#45; `id` &#45; MongoDB document ObjectID &quot;_id&quot; field.&#10;Mapped to the PydanticObjectId class&#10;">
<polygon fill="none" stroke="black" points="288,-199.62 288,-215.38 415.5,-215.38 415.5,-199.62 288,-199.62"/>
<text text-anchor="start" x="334.88" y="-205.78" font-family="Times New Roman,Times,Liberation Serif,serif" font-weight="bold" font-size="8.00">Monomer</text>
<polygon fill="none" stroke="black" points="288,-183.88 288,-199.62 351.75,-199.62 351.75,-183.88 288,-183.88"/>
<text text-anchor="start" x="309.75" y="-189.03" font-family="Times New Roman,Times,Liberation Serif,serif" font-size="8.00">smiles</text>
<polygon fill="none" stroke="black" points="351.75,-183.88 351.75,-199.62 415.5,-199.62 415.5,-183.88 351.75,-183.88"/>
<text text-anchor="start" x="362.62" y="-189.03" font-family="Times New Roman,Times,Liberation Serif,serif" font-size="8.00">Optional[str]</text>
<polygon fill="none" stroke="black" points="288,-168.12 288,-183.88 351.75,-183.88 351.75,-168.12 288,-168.12"/>
<text text-anchor="start" x="312" y="-173.28" font-family="Times New Roman,Times,Liberation Serif,serif" font-size="8.00">inchi</text>
<polygon fill="none" stroke="black" points="351.75,-168.12 351.75,-183.88 415.5,-183.88 415.5,-168.12 351.75,-168.12"/>
<text text-anchor="start" x="362.62" y="-173.28" font-family="Times New Roman,Times,Liberation Serif,serif" font-size="8.00">Optional[str]</text>
<polygon fill="none" stroke="black" points="288,-152.38 288,-168.12 351.75,-168.12 351.75,-152.38 288,-152.38"/>
<text text-anchor="start" x="291" y="-157.53" font-family="Times New Roman,Times,Liberation Serif,serif" font-size="8.00">molecular_weight</text>
<polygon fill="none" stroke="black" points="351.75,-152.38 351.75,-168.12 415.5,-168.12 415.5,-152.38 351.75,-152.38"/>
<text text-anchor="start" x="359.25" y="-157.53" font-family="Times New Roman,Times,Liberation Serif,serif" font-size="8.00">Optional[float]</text>
<polygon fill="none" stroke="black" points="288,-136.62 288,-152.38 351.75,-152.38 351.75,-136.62 288,-136.62"/>
<text text-anchor="start" x="291.38" y="-141.78" font-family="Times New Roman,Times,Liberation Serif,serif" font-size="8.00">functional_groups</text>
<polygon fill="none" stroke="black" points="351.75,-136.62 351.75,-152.38 415.5,-152.38 415.5,-136.62 351.75,-136.62"/>
<text text-anchor="start" x="354.75" y="-141.78" font-family="Times New Roman,Times,Liberation Serif,serif" font-size="8.00">Optional[list[str]]</text>
<polygon fill="none" stroke="black" points="288,-120.88 288,-136.62 351.75,-136.62 351.75,-120.88 288,-120.88"/>
<text text-anchor="start" x="300.75" y="-126.03" font-family="Times New Roman,Times,Liberation Serif,serif" font-size="8.00">iupac_name</text>
<polygon fill="none" stroke="black" points="351.75,-120.88 351.75,-136.62 415.5,-136.62 415.5,-120.88 351.75,-120.88"/>
<text text-anchor="start" x="362.62" y="-126.03" font-family="Times New Roman,Times,Liberation Serif,serif" font-size="8.00">Optional[str]</text>
<polygon fill="none" stroke="black" points="288,-105.12 288,-120.88 351.75,-120.88 351.75,-105.12 288,-105.12"/>
<text text-anchor="start" x="295.88" y="-110.28" font-family="Times New Roman,Times,Liberation Serif,serif" font-size="8.00">common_name</text>
<polygon fill="none" stroke="black" points="351.75,-105.12 351.75,-120.88 415.5,-120.88 415.5,-105.12 351.75,-105.12"/>
<text text-anchor="start" x="362.62" y="-110.28" font-family="Times New Roman,Times,Liberation Serif,serif" font-size="8.00">Optional[str]</text>
<polygon fill="none" stroke="black" points="288,-89.38 288,-105.12 351.75,-105.12 351.75,-89.38 288,-89.38"/>
<text text-anchor="start" x="314.25" y="-94.53" font-family="Times New Roman,Times,Liberation Serif,serif" font-size="8.00">xyz</text>
<polygon fill="none" stroke="black" points="351.75,-89.38 351.75,-105.12 415.5,-105.12 415.5,-89.38 351.75,-89.38"/>
<text text-anchor="start" x="362.62" y="-94.53" font-family="Times New Roman,Times,Liberation Serif,serif" font-size="8.00">Optional[str]</text>
<polygon fill="none" stroke="black" points="288,-73.62 288,-89.38 351.75,-89.38 351.75,-73.62 288,-73.62"/>
<text text-anchor="start" x="305.25" y="-78.78" font-family="Times New Roman,Times,Liberation Serif,serif" font-size="8.00">ring_size</text>
<polygon fill="none" stroke="black" points="351.75,-73.62 351.75,-89.38 415.5,-89.38 415.5,-73.62 351.75,-73.62"/>
<text text-anchor="start" x="362.62" y="-78.78" font-family="Times New Roman,Times,Liberation Serif,serif" font-size="8.00">Optional[int]</text>
</a>
</g>
</g>
<!-- roppy.core.models.Parameters -->
<g id="node4" class="node">
<title>roppy.core.models.Parameters</title>
<g id="a_node4"><a xlink:title="roppy.core.models.Parameters&#10;&#10;!!! abstract &quot;Usage Documentation&quot;&#10; &#160;&#160;&#160;[Models](../concepts/models.md)&#10;&#10;A base class for creating Pydantic models.&#10;&#10;Attributes:&#10; &#160;&#160;&#160;__class_vars__: The names of the class variables defined on the model.&#10; &#160;&#160;&#160;__private_attributes__: Metadata about the private attributes of the model.&#10; &#160;&#160;&#160;__signature__: The synthesized `__init__` [`Signature`][inspect.Signature] of the model.&#10;&#10; &#160;&#160;&#160;__pydantic_complete__: Whether model building is completed, or if there are still undefined fields.&#10; &#160;&#160;&#160;__pydantic_core_schema__: The core schema of the model.&#10; &#160;&#160;&#160;__pydantic_custom_init__: Whether the model has a custom `__init__` function.&#10; &#160;&#160;&#160;__pydantic_decorators__: Metadata containing the decorators defined on the model.&#10; &#160;&#160;&#160;&#160;&#160;&#160;&#160;This replaces `Model.__validators__` and `Model.__root_validators__` from Pydantic V1.&#10; &#160;&#160;&#160;__pydantic_generic_metadata__: Metadata for generic models; contains data used for a similar purpose to&#10; &#160;&#160;&#160;&#160;&#160;&#160;&#160;__args__, __origin__, __parameters__ in typing&#45;module generics. May eventually be replaced by these.&#10; &#160;&#160;&#160;__pydantic_parent_namespace__: Parent namespace of the model, used for automatic rebuilding of models.&#10; &#160;&#160;&#160;__pydantic_post_init__: The name of the post&#45;init method for the model, if defined.&#10; &#160;&#160;&#160;__pydantic_root_model__: Whether the model is a [`RootModel`][pydantic.root_model.RootModel].&#10; &#160;&#160;&#160;__pydantic_serializer__: The `pydantic&#45;core` `SchemaSerializer` used to dump instances of the model.&#10; &#160;&#160;&#160;__pydantic_validator__: The `pydantic&#45;core` `SchemaValidator` used to validate instances of the model.&#10;&#10; &#160;&#160;&#160;__pydantic_fields__: A dictionary of field names and their corresponding [`FieldInfo`][pydantic.fields.FieldInfo] objects.&#10; &#160;&#160;&#160;__pydantic_computed_fields__: A dictionary of computed field names and their corresponding [`ComputedFieldInfo`][pydantic.fields.ComputedFieldInfo] objects.&#10;&#10; &#160;&#160;&#160;__pydantic_extra__: A dictionary containing extra values, if [`extra`][pydantic.config.ConfigDict.extra]&#10; &#160;&#160;&#160;&#160;&#160;&#160;&#160;is set to `&#39;allow&#39;`.&#10; &#160;&#160;&#160;__pydantic_fields_set__: The names of fields explicitly set during instantiation.&#10; &#160;&#160;&#160;__pydantic_private__: Values of private attributes set on the model instance.&#10;">
<polygon fill="none" stroke="black" points="451.75,-254.75 451.75,-270.5 583.75,-270.5 583.75,-254.75 451.75,-254.75"/>
<text text-anchor="start" x="497.5" y="-260.9" font-family="Times New Roman,Times,Liberation Serif,serif" font-weight="bold" font-size="8.00">Parameters</text>
<polygon fill="none" stroke="black" points="451.75,-239 451.75,-254.75 529,-254.75 529,-239 451.75,-239"/>
<text text-anchor="start" x="464.88" y="-244.15" font-family="Times New Roman,Times,Liberation Serif,serif" font-size="8.00">is_experimental</text>
<polygon fill="none" stroke="black" points="529,-239 529,-254.75 583.75,-254.75 583.75,-239 529,-239"/>
<text text-anchor="start" x="549.62" y="-244.15" font-family="Times New Roman,Times,Liberation Serif,serif" font-size="8.00">bool</text>
<polygon fill="none" stroke="black" points="451.75,-223.25 451.75,-239 529,-239 529,-223.25 451.75,-223.25"/>
<text text-anchor="start" x="470.88" y="-228.4" font-family="Times New Roman,Times,Liberation Serif,serif" font-size="8.00">temperature</text>
<polygon fill="none" stroke="black" points="529,-223.25 529,-239 583.75,-239 583.75,-223.25 529,-223.25"/>
<text text-anchor="start" x="532" y="-228.4" font-family="Times New Roman,Times,Liberation Serif,serif" font-size="8.00">Optional[float]</text>
<polygon fill="none" stroke="black" points="451.75,-207.5 451.75,-223.25 529,-223.25 529,-207.5 451.75,-207.5"/>
<text text-anchor="start" x="476.88" y="-212.65" font-family="Times New Roman,Times,Liberation Serif,serif" font-size="8.00">pressure</text>
<polygon fill="none" stroke="black" points="529,-207.5 529,-223.25 583.75,-223.25 583.75,-207.5 529,-207.5"/>
<text text-anchor="start" x="532" y="-212.65" font-family="Times New Roman,Times,Liberation Serif,serif" font-size="8.00">Optional[float]</text>
<polygon fill="none" stroke="black" points="451.75,-191.75 451.75,-207.5 529,-207.5 529,-191.75 451.75,-191.75"/>
<text text-anchor="start" x="466" y="-196.9" font-family="Times New Roman,Times,Liberation Serif,serif" font-size="8.00">monomer_state</text>
<polygon fill="none" stroke="black" points="529,-191.75 529,-207.5 583.75,-207.5 583.75,-191.75 529,-191.75"/>
<text text-anchor="start" x="535.38" y="-196.9" font-family="Times New Roman,Times,Liberation Serif,serif" font-size="8.00">Optional[str]</text>
<polygon fill="none" stroke="black" points="451.75,-176 451.75,-191.75 529,-191.75 529,-176 451.75,-176"/>
<text text-anchor="start" x="467.88" y="-181.15" font-family="Times New Roman,Times,Liberation Serif,serif" font-size="8.00">polymer_state</text>
<polygon fill="none" stroke="black" points="529,-176 529,-191.75 583.75,-191.75 583.75,-176 529,-176"/>
<text text-anchor="start" x="535.38" y="-181.15" font-family="Times New Roman,Times,Liberation Serif,serif" font-size="8.00">Optional[str]</text>
<polygon fill="none" stroke="black" points="451.75,-160.25 451.75,-176 529,-176 529,-160.25 451.75,-160.25"/>
<text text-anchor="start" x="454.75" y="-165.4" font-family="Times New Roman,Times,Liberation Serif,serif" font-size="8.00">initial_monomer_conc</text>
<polygon fill="none" stroke="black" points="529,-160.25 529,-176 583.75,-176 583.75,-160.25 529,-160.25"/>
<text text-anchor="start" x="532" y="-165.4" font-family="Times New Roman,Times,Liberation Serif,serif" font-size="8.00">Optional[float]</text>
<polygon fill="none" stroke="black" points="451.75,-144.5 451.75,-160.25 529,-160.25 529,-144.5 451.75,-144.5"/>
<text text-anchor="start" x="457.38" y="-149.65" font-family="Times New Roman,Times,Liberation Serif,serif" font-size="8.00">bulk_monomer_conc</text>
<polygon fill="none" stroke="black" points="529,-144.5 529,-160.25 583.75,-160.25 583.75,-144.5 529,-144.5"/>
<text text-anchor="start" x="532" y="-149.65" font-family="Times New Roman,Times,Liberation Serif,serif" font-size="8.00">Optional[float]</text>
<polygon fill="none" stroke="black" points="451.75,-128.75 451.75,-144.5 529,-144.5 529,-128.75 451.75,-128.75"/>
<text text-anchor="start" x="479.12" y="-133.9" font-family="Times New Roman,Times,Liberation Serif,serif" font-size="8.00">solvent</text>
<polygon fill="none" stroke="black" points="529,-128.75 529,-144.5 583.75,-144.5 583.75,-128.75 529,-128.75"/>
<text text-anchor="start" x="535.38" y="-133.9" font-family="Times New Roman,Times,Liberation Serif,serif" font-size="8.00">Optional[str]</text>
<polygon fill="none" stroke="black" points="451.75,-113 451.75,-128.75 529,-128.75 529,-113 451.75,-113"/>
<text text-anchor="start" x="478.75" y="-118.15" font-family="Times New Roman,Times,Liberation Serif,serif" font-size="8.00">method</text>
<polygon fill="none" stroke="black" points="529,-113 529,-128.75 583.75,-128.75 583.75,-113 529,-113"/>
<text text-anchor="start" x="535.38" y="-118.15" font-family="Times New Roman,Times,Liberation Serif,serif" font-size="8.00">Optional[str]</text>
<polygon fill="none" stroke="black" points="451.75,-97.25 451.75,-113 529,-113 529,-97.25 451.75,-97.25"/>
<text text-anchor="start" x="474.25" y="-102.4" font-family="Times New Roman,Times,Liberation Serif,serif" font-size="8.00">functional</text>
<polygon fill="none" stroke="black" points="529,-97.25 529,-113 583.75,-113 583.75,-97.25 529,-97.25"/>
<text text-anchor="start" x="535.38" y="-102.4" font-family="Times New Roman,Times,Liberation Serif,serif" font-size="8.00">Optional[str]</text>
<polygon fill="none" stroke="black" points="451.75,-81.5 451.75,-97.25 529,-97.25 529,-81.5 451.75,-81.5"/>
<text text-anchor="start" x="476.12" y="-86.65" font-family="Times New Roman,Times,Liberation Serif,serif" font-size="8.00">basis_set</text>
<polygon fill="none" stroke="black" points="529,-81.5 529,-97.25 583.75,-97.25 583.75,-81.5 529,-81.5"/>
<text text-anchor="start" x="535.38" y="-86.65" font-family="Times New Roman,Times,Liberation Serif,serif" font-size="8.00">Optional[str]</text>
<polygon fill="none" stroke="black" points="451.75,-65.75 451.75,-81.5 529,-81.5 529,-65.75 451.75,-65.75"/>
<text text-anchor="start" x="474.25" y="-70.9" font-family="Times New Roman,Times,Liberation Serif,serif" font-size="8.00">dispersion</text>
<polygon fill="none" stroke="black" points="529,-65.75 529,-81.5 583.75,-81.5 583.75,-65.75 529,-65.75"/>
<text text-anchor="start" x="535.38" y="-70.9" font-family="Times New Roman,Times,Liberation Serif,serif" font-size="8.00">Optional[str]</text>
<polygon fill="none" stroke="black" points="451.75,-50 451.75,-65.75 529,-65.75 529,-50 451.75,-50"/>
<text text-anchor="start" x="474.25" y="-55.15" font-family="Times New Roman,Times,Liberation Serif,serif" font-size="8.00">forcefield</text>
<polygon fill="none" stroke="black" points="529,-50 529,-65.75 583.75,-65.75 583.75,-50 529,-50"/>
<text text-anchor="start" x="535.38" y="-55.15" font-family="Times New Roman,Times,Liberation Serif,serif" font-size="8.00">Optional[str]</text>
<polygon fill="none" stroke="black" points="451.75,-34.25 451.75,-50 529,-50 529,-34.25 451.75,-34.25"/>
<text text-anchor="start" x="467.5" y="-39.4" font-family="Times New Roman,Times,Liberation Serif,serif" font-size="8.00">solvent_model</text>
<polygon fill="none" stroke="black" points="529,-34.25 529,-50 583.75,-50 583.75,-34.25 529,-34.25"/>
<text text-anchor="start" x="535.38" y="-39.4" font-family="Times New Roman,Times,Liberation Serif,serif" font-size="8.00">Optional[str]</text>
<polygon fill="none" stroke="black" points="451.75,-18.5 451.75,-34.25 529,-34.25 529,-18.5 451.75,-18.5"/>
<text text-anchor="start" x="466.38" y="-23.65" font-family="Times New Roman,Times,Liberation Serif,serif" font-size="8.00">state_summary</text>
<polygon fill="none" stroke="black" points="529,-18.5 529,-34.25 583.75,-34.25 583.75,-18.5 529,-18.5"/>
<text text-anchor="start" x="552.25" y="-23.65" font-family="Times New Roman,Times,Liberation Serif,serif" font-size="8.00">str</text>
</a>
</g>
</g>
<!-- roppy.core.models.Product -->
<g id="node5" class="node">
<title>roppy.core.models.Product</title>
<g id="a_node5"><a xlink:title="roppy.core.models.Product&#10;&#10;!!! abstract &quot;Usage Documentation&quot;&#10; &#160;&#160;&#160;[Models](../concepts/models.md)&#10;&#10;A base class for creating Pydantic models.&#10;&#10;Attributes:&#10; &#160;&#160;&#160;__class_vars__: The names of the class variables defined on the model.&#10; &#160;&#160;&#160;__private_attributes__: Metadata about the private attributes of the model.&#10; &#160;&#160;&#160;__signature__: The synthesized `__init__` [`Signature`][inspect.Signature] of the model.&#10;&#10; &#160;&#160;&#160;__pydantic_complete__: Whether model building is completed, or if there are still undefined fields.&#10; &#160;&#160;&#160;__pydantic_core_schema__: The core schema of the model.&#10; &#160;&#160;&#160;__pydantic_custom_init__: Whether the model has a custom `__init__` function.&#10; &#160;&#160;&#160;__pydantic_decorators__: Metadata containing the decorators defined on the model.&#10; &#160;&#160;&#160;&#160;&#160;&#160;&#160;This replaces `Model.__validators__` and `Model.__root_validators__` from Pydantic V1.&#10; &#160;&#160;&#160;__pydantic_generic_metadata__: Metadata for generic models; contains data used for a similar purpose to&#10; &#160;&#160;&#160;&#160;&#160;&#160;&#160;__args__, __origin__, __parameters__ in typing&#45;module generics. May eventually be replaced by these.&#10; &#160;&#160;&#160;__pydantic_parent_namespace__: Parent namespace of the model, used for automatic rebuilding of models.&#10; &#160;&#160;&#160;__pydantic_post_init__: The name of the post&#45;init method for the model, if defined.&#10; &#160;&#160;&#160;__pydantic_root_model__: Whether the model is a [`RootModel`][pydantic.root_model.RootModel].&#10; &#160;&#160;&#160;__pydantic_serializer__: The `pydantic&#45;core` `SchemaSerializer` used to dump instances of the model.&#10; &#160;&#160;&#160;__pydantic_validator__: The `pydantic&#45;core` `SchemaValidator` used to validate instances of the model.&#10;&#10; &#160;&#160;&#160;__pydantic_fields__: A dictionary of field names and their corresponding [`FieldInfo`][pydantic.fields.FieldInfo] objects.&#10; &#160;&#160;&#160;__pydantic_computed_fields__: A dictionary of computed field names and their corresponding [`ComputedFieldInfo`][pydantic.fields.ComputedFieldInfo] objects.&#10;&#10; &#160;&#160;&#160;__pydantic_extra__: A dictionary containing extra values, if [`extra`][pydantic.config.ConfigDict.extra]&#10; &#160;&#160;&#160;&#160;&#160;&#160;&#160;is set to `&#39;allow&#39;`.&#10; &#160;&#160;&#160;__pydantic_fields_set__: The names of fields explicitly set during instantiation.&#10; &#160;&#160;&#160;__pydantic_private__: Values of private attributes set on the model instance.&#10;">
<polygon fill="none" stroke="black" points="619.88,-183.88 619.88,-199.62 743.62,-199.62 743.62,-183.88 619.88,-183.88"/>
<text text-anchor="start" x="667.5" y="-190.03" font-family="Times New Roman,Times,Liberation Serif,serif" font-weight="bold" font-size="8.00">Product</text>
<polygon fill="none" stroke="black" points="619.88,-168.12 619.88,-183.88 688.88,-183.88 688.88,-168.12 619.88,-168.12"/>
<text text-anchor="start" x="644.25" y="-173.28" font-family="Times New Roman,Times,Liberation Serif,serif" font-size="8.00">smiles</text>
<polygon fill="none" stroke="black" points="688.88,-168.12 688.88,-183.88 743.62,-183.88 743.62,-168.12 688.88,-168.12"/>
<text text-anchor="start" x="695.25" y="-173.28" font-family="Times New Roman,Times,Liberation Serif,serif" font-size="8.00">Optional[str]</text>
<polygon fill="none" stroke="black" points="619.88,-152.38 619.88,-168.12 688.88,-168.12 688.88,-152.38 619.88,-152.38"/>
<text text-anchor="start" x="630" y="-157.53" font-family="Times New Roman,Times,Liberation Serif,serif" font-size="8.00">repeating_units</text>
<polygon fill="none" stroke="black" points="688.88,-152.38 688.88,-168.12 743.62,-168.12 743.62,-152.38 688.88,-152.38"/>
<text text-anchor="start" x="691.88" y="-157.53" font-family="Times New Roman,Times,Liberation Serif,serif" font-size="8.00">Optional[float]</text>
<polygon fill="none" stroke="black" points="619.88,-136.62 619.88,-152.38 688.88,-152.38 688.88,-136.62 619.88,-136.62"/>
<text text-anchor="start" x="634.88" y="-141.78" font-family="Times New Roman,Times,Liberation Serif,serif" font-size="8.00">deg_of_poly</text>
<polygon fill="none" stroke="black" points="688.88,-136.62 688.88,-152.38 743.62,-152.38 743.62,-136.62 688.88,-136.62"/>
<text text-anchor="start" x="691.88" y="-141.78" font-family="Times New Roman,Times,Liberation Serif,serif" font-size="8.00">Optional[float]</text>
<polygon fill="none" stroke="black" points="619.88,-120.88 619.88,-136.62 688.88,-136.62 688.88,-120.88 619.88,-120.88"/>
<text text-anchor="start" x="639" y="-126.03" font-family="Times New Roman,Times,Liberation Serif,serif" font-size="8.00">dispersity</text>
<polygon fill="none" stroke="black" points="688.88,-120.88 688.88,-136.62 743.62,-136.62 743.62,-120.88 688.88,-120.88"/>
<text text-anchor="start" x="691.88" y="-126.03" font-family="Times New Roman,Times,Liberation Serif,serif" font-size="8.00">Optional[float]</text>
<polygon fill="none" stroke="black" points="619.88,-105.12 619.88,-120.88 688.88,-120.88 688.88,-105.12 619.88,-105.12"/>
<text text-anchor="start" x="624" y="-110.28" font-family="Times New Roman,Times,Liberation Serif,serif" font-size="8.00">n_avg_molar_mass</text>
<polygon fill="none" stroke="black" points="688.88,-105.12 688.88,-120.88 743.62,-120.88 743.62,-105.12 688.88,-105.12"/>
<text text-anchor="start" x="691.88" y="-110.28" font-family="Times New Roman,Times,Liberation Serif,serif" font-size="8.00">Optional[float]</text>
<polygon fill="none" stroke="black" points="619.88,-89.38 619.88,-105.12 688.88,-105.12 688.88,-89.38 619.88,-89.38"/>
<text text-anchor="start" x="622.88" y="-94.53" font-family="Times New Roman,Times,Liberation Serif,serif" font-size="8.00">m_avg_molar_mass</text>
<polygon fill="none" stroke="black" points="688.88,-89.38 688.88,-105.12 743.62,-105.12 743.62,-89.38 688.88,-89.38"/>
<text text-anchor="start" x="691.88" y="-94.53" font-family="Times New Roman,Times,Liberation Serif,serif" font-size="8.00">Optional[float]</text>
</a>
</g>
</g>
<!-- roppy.core.models.Thermo -->
<g id="node6" class="node">
<title>roppy.core.models.Thermo</title>
<g id="a_node6"><a xlink:title="roppy.core.models.Thermo&#10;&#10;!!! abstract &quot;Usage Documentation&quot;&#10; &#160;&#160;&#160;[Models](../concepts/models.md)&#10;&#10;A base class for creating Pydantic models.&#10;&#10;Attributes:&#10; &#160;&#160;&#160;__class_vars__: The names of the class variables defined on the model.&#10; &#160;&#160;&#160;__private_attributes__: Metadata about the private attributes of the model.&#10; &#160;&#160;&#160;__signature__: The synthesized `__init__` [`Signature`][inspect.Signature] of the model.&#10;&#10; &#160;&#160;&#160;__pydantic_complete__: Whether model building is completed, or if there are still undefined fields.&#10; &#160;&#160;&#160;__pydantic_core_schema__: The core schema of the model.&#10; &#160;&#160;&#160;__pydantic_custom_init__: Whether the model has a custom `__init__` function.&#10; &#160;&#160;&#160;__pydantic_decorators__: Metadata containing the decorators defined on the model.&#10; &#160;&#160;&#160;&#160;&#160;&#160;&#160;This replaces `Model.__validators__` and `Model.__root_validators__` from Pydantic V1.&#10; &#160;&#160;&#160;__pydantic_generic_metadata__: Metadata for generic models; contains data used for a similar purpose to&#10; &#160;&#160;&#160;&#160;&#160;&#160;&#160;__args__, __origin__, __parameters__ in typing&#45;module generics. May eventually be replaced by these.&#10; &#160;&#160;&#160;__pydantic_parent_namespace__: Parent namespace of the model, used for automatic rebuilding of models.&#10; &#160;&#160;&#160;__pydantic_post_init__: The name of the post&#45;init method for the model, if defined.&#10; &#160;&#160;&#160;__pydantic_root_model__: Whether the model is a [`RootModel`][pydantic.root_model.RootModel].&#10; &#160;&#160;&#160;__pydantic_serializer__: The `pydantic&#45;core` `SchemaSerializer` used to dump instances of the model.&#10; &#160;&#160;&#160;__pydantic_validator__: The `pydantic&#45;core` `SchemaValidator` used to validate instances of the model.&#10;&#10; &#160;&#160;&#160;__pydantic_fields__: A dictionary of field names and their corresponding [`FieldInfo`][pydantic.fields.FieldInfo] objects.&#10; &#160;&#160;&#160;__pydantic_computed_fields__: A dictionary of computed field names and their corresponding [`ComputedFieldInfo`][pydantic.fields.ComputedFieldInfo] objects.&#10;&#10; &#160;&#160;&#160;__pydantic_extra__: A dictionary containing extra values, if [`extra`][pydantic.config.ConfigDict.extra]&#10; &#160;&#160;&#160;&#160;&#160;&#160;&#160;is set to `&#39;allow&#39;`.&#10; &#160;&#160;&#160;__pydantic_fields_set__: The names of fields explicitly set during instantiation.&#10; &#160;&#160;&#160;__pydantic_private__: Values of private attributes set on the model instance.&#10;">
<polygon fill="none" stroke="black" points="779.25,-160.25 779.25,-176 902.25,-176 902.25,-160.25 779.25,-160.25"/>
<text text-anchor="start" x="826.88" y="-166.4" font-family="Times New Roman,Times,Liberation Serif,serif" font-weight="bold" font-size="8.00">Thermo</text>
<polygon fill="none" stroke="black" points="779.25,-144.5 779.25,-160.25 847.5,-160.25 847.5,-144.5 779.25,-144.5"/>
<text text-anchor="start" x="801.75" y="-149.65" font-family="Times New Roman,Times,Liberation Serif,serif" font-size="8.00">delta_h</text>
<polygon fill="none" stroke="black" points="847.5,-144.5 847.5,-160.25 902.25,-160.25 902.25,-144.5 847.5,-144.5"/>
<text text-anchor="start" x="850.5" y="-149.65" font-family="Times New Roman,Times,Liberation Serif,serif" font-size="8.00">Optional[float]</text>
<polygon fill="none" stroke="black" points="779.25,-128.75 779.25,-144.5 847.5,-144.5 847.5,-128.75 779.25,-128.75"/>
<text text-anchor="start" x="802.12" y="-133.9" font-family="Times New Roman,Times,Liberation Serif,serif" font-size="8.00">delta_s</text>
<polygon fill="none" stroke="black" points="847.5,-128.75 847.5,-144.5 902.25,-144.5 902.25,-128.75 847.5,-128.75"/>
<text text-anchor="start" x="850.5" y="-133.9" font-family="Times New Roman,Times,Liberation Serif,serif" font-size="8.00">Optional[float]</text>
<polygon fill="none" stroke="black" points="779.25,-113 779.25,-128.75 847.5,-128.75 847.5,-113 779.25,-113"/>
<text text-anchor="start" x="782.25" y="-118.15" font-family="Times New Roman,Times,Liberation Serif,serif" font-size="8.00">ceil_temp_reported</text>
<polygon fill="none" stroke="black" points="847.5,-113 847.5,-128.75 902.25,-128.75 902.25,-113 847.5,-113"/>
<text text-anchor="start" x="850.5" y="-118.15" font-family="Times New Roman,Times,Liberation Serif,serif" font-size="8.00">Optional[float]</text>
</a>
</g>
</g>
</g>
</svg>
