<?xml version="1.0" encoding="utf-8" standalone="no"?>
<!DOCTYPE svg PUBLIC "-//W3C//DTD SVG 1.1//EN"
  "http://www.w3.org/Graphics/SVG/1.1/DTD/svg11.dtd">
<svg xmlns:xlink="http://www.w3.org/1999/xlink" width="576pt" height="396pt" viewBox="0 0 576 396" xmlns="http://www.w3.org/2000/svg" version="1.1">
 <metadata>
  <rdf:RDF xmlns:dc="http://purl.org/dc/elements/1.1/" xmlns:cc="http://creativecommons.org/ns#" xmlns:rdf="http://www.w3.org/1999/02/22-rdf-syntax-ns#">
   <cc:Work>
    <dc:type rdf:resource="http://purl.org/dc/dcmitype/StillImage"/>
    <dc:date>2025-06-04T23:09:01.382515</dc:date>
    <dc:format>image/svg+xml</dc:format>
    <dc:creator>
     <cc:Agent>
      <dc:title>Matplotlib v3.10.1, https://matplotlib.org/</dc:title>
     </cc:Agent>
    </dc:creator>
   </cc:Work>
  </rdf:RDF>
 </metadata>
 <defs>
  <style type="text/css">*{stroke-linejoin: round; stroke-linecap: butt}</style>
 </defs>
 <g id="figure_1">
  <g id="patch_1">
   <path d="M 0 396 
L 576 396 
L 576 0 
L 0 0 
z
" style="fill: #ffffff"/>
  </g>
  <g id="axes_1">
   <g id="patch_2">
    <path d="M 72 352.44 
L 518.4 352.44 
L 518.4 47.52 
L 72 47.52 
z
" style="fill: #eaeaf2"/>
   </g>
   <g id="matplotlib.axis_1">
    <g id="xtick_1">
     <g id="line2d_1">
      <path d="M 92.290909 352.44 
L 92.290909 47.52 
" clip-path="url(#pa8a85c2229)" style="fill: none; stroke: #ffffff; stroke-linecap: round"/>
     </g>
     <g id="line2d_2"/>
     <g id="text_1">
      <!-- 1980 -->
      <g style="fill: #262626" transform="translate(81.169034 366.686875) scale(0.1 -0.1)">
       <defs>
        <path id="LiberationSans-31" d="M 488 0 
L 488 478 
L 1609 478 
L 1609 3866 
L 616 3156 
L 616 3688 
L 1656 4403 
L 2175 4403 
L 2175 478 
L 3247 478 
L 3247 0 
L 488 0 
z
" transform="scale(0.015625)"/>
        <path id="LiberationSans-39" d="M 3256 2291 
Q 3256 1156 2842 546 
Q 2428 -63 1663 -63 
Q 1147 -63 836 154 
Q 525 372 391 856 
L 928 941 
Q 1097 391 1672 391 
Q 2156 391 2422 841 
Q 2688 1291 2700 2125 
Q 2575 1844 2272 1673 
Q 1969 1503 1606 1503 
Q 1013 1503 656 1909 
Q 300 2316 300 2988 
Q 300 3678 687 4073 
Q 1075 4469 1766 4469 
Q 2500 4469 2878 3925 
Q 3256 3381 3256 2291 
z
M 2644 2834 
Q 2644 3366 2400 3689 
Q 2156 4013 1747 4013 
Q 1341 4013 1106 3736 
Q 872 3459 872 2988 
Q 872 2506 1106 2226 
Q 1341 1947 1741 1947 
Q 1984 1947 2193 2058 
Q 2403 2169 2523 2372 
Q 2644 2575 2644 2834 
z
" transform="scale(0.015625)"/>
        <path id="LiberationSans-38" d="M 3281 1228 
Q 3281 619 2893 278 
Q 2506 -63 1781 -63 
Q 1075 -63 676 271 
Q 278 606 278 1222 
Q 278 1653 525 1947 
Q 772 2241 1156 2303 
L 1156 2316 
Q 797 2400 589 2681 
Q 381 2963 381 3341 
Q 381 3844 757 4156 
Q 1134 4469 1769 4469 
Q 2419 4469 2795 4162 
Q 3172 3856 3172 3334 
Q 3172 2956 2962 2675 
Q 2753 2394 2391 2322 
L 2391 2309 
Q 2813 2241 3047 1952 
Q 3281 1663 3281 1228 
z
M 2588 3303 
Q 2588 4050 1769 4050 
Q 1372 4050 1164 3862 
Q 956 3675 956 3303 
Q 956 2925 1170 2726 
Q 1384 2528 1775 2528 
Q 2172 2528 2380 2711 
Q 2588 2894 2588 3303 
z
M 2697 1281 
Q 2697 1691 2453 1898 
Q 2209 2106 1769 2106 
Q 1341 2106 1100 1882 
Q 859 1659 859 1269 
Q 859 359 1788 359 
Q 2247 359 2472 579 
Q 2697 800 2697 1281 
z
" transform="scale(0.015625)"/>
        <path id="LiberationSans-30" d="M 3309 2203 
Q 3309 1100 2920 518 
Q 2531 -63 1772 -63 
Q 1013 -63 631 515 
Q 250 1094 250 2203 
Q 250 3338 620 3903 
Q 991 4469 1791 4469 
Q 2569 4469 2939 3897 
Q 3309 3325 3309 2203 
z
M 2738 2203 
Q 2738 3156 2517 3584 
Q 2297 4013 1791 4013 
Q 1272 4013 1045 3591 
Q 819 3169 819 2203 
Q 819 1266 1048 831 
Q 1278 397 1778 397 
Q 2275 397 2506 840 
Q 2738 1284 2738 2203 
z
" transform="scale(0.015625)"/>
       </defs>
       <use xlink:href="#LiberationSans-31"/>
       <use xlink:href="#LiberationSans-39" transform="translate(55.615234 0)"/>
       <use xlink:href="#LiberationSans-38" transform="translate(111.230469 0)"/>
       <use xlink:href="#LiberationSans-30" transform="translate(166.845703 0)"/>
      </g>
     </g>
    </g>
    <g id="xtick_2">
     <g id="line2d_3">
      <path d="M 137.398278 352.44 
L 137.398278 47.52 
" clip-path="url(#pa8a85c2229)" style="fill: none; stroke: #ffffff; stroke-linecap: round"/>
     </g>
     <g id="line2d_4"/>
     <g id="text_2">
      <!-- 1985 -->
      <g style="fill: #262626" transform="translate(126.276403 366.686875) scale(0.1 -0.1)">
       <defs>
        <path id="LiberationSans-35" d="M 3291 1434 
Q 3291 738 2877 337 
Q 2463 -63 1728 -63 
Q 1113 -63 734 206 
Q 356 475 256 984 
L 825 1050 
Q 1003 397 1741 397 
Q 2194 397 2450 670 
Q 2706 944 2706 1422 
Q 2706 1838 2448 2094 
Q 2191 2350 1753 2350 
Q 1525 2350 1328 2278 
Q 1131 2206 934 2034 
L 384 2034 
L 531 4403 
L 3034 4403 
L 3034 3925 
L 1044 3925 
L 959 2528 
Q 1325 2809 1869 2809 
Q 2519 2809 2905 2428 
Q 3291 2047 3291 1434 
z
" transform="scale(0.015625)"/>
       </defs>
       <use xlink:href="#LiberationSans-31"/>
       <use xlink:href="#LiberationSans-39" transform="translate(55.615234 0)"/>
       <use xlink:href="#LiberationSans-38" transform="translate(111.230469 0)"/>
       <use xlink:href="#LiberationSans-35" transform="translate(166.845703 0)"/>
      </g>
     </g>
    </g>
    <g id="xtick_3">
     <g id="line2d_5">
      <path d="M 182.480957 352.44 
L 182.480957 47.52 
" clip-path="url(#pa8a85c2229)" style="fill: none; stroke: #ffffff; stroke-linecap: round"/>
     </g>
     <g id="line2d_6"/>
     <g id="text_3">
      <!-- 1990 -->
      <g style="fill: #262626" transform="translate(171.359082 366.686875) scale(0.1 -0.1)">
       <use xlink:href="#LiberationSans-31"/>
       <use xlink:href="#LiberationSans-39" transform="translate(55.615234 0)"/>
       <use xlink:href="#LiberationSans-39" transform="translate(111.230469 0)"/>
       <use xlink:href="#LiberationSans-30" transform="translate(166.845703 0)"/>
      </g>
     </g>
    </g>
    <g id="xtick_4">
     <g id="line2d_7">
      <path d="M 227.563636 352.44 
L 227.563636 47.52 
" clip-path="url(#pa8a85c2229)" style="fill: none; stroke: #ffffff; stroke-linecap: round"/>
     </g>
     <g id="line2d_8"/>
     <g id="text_4">
      <!-- 1995 -->
      <g style="fill: #262626" transform="translate(216.441761 366.686875) scale(0.1 -0.1)">
       <use xlink:href="#LiberationSans-31"/>
       <use xlink:href="#LiberationSans-39" transform="translate(55.615234 0)"/>
       <use xlink:href="#LiberationSans-39" transform="translate(111.230469 0)"/>
       <use xlink:href="#LiberationSans-35" transform="translate(166.845703 0)"/>
      </g>
     </g>
    </g>
    <g id="xtick_5">
     <g id="line2d_9">
      <path d="M 272.646316 352.44 
L 272.646316 47.52 
" clip-path="url(#pa8a85c2229)" style="fill: none; stroke: #ffffff; stroke-linecap: round"/>
     </g>
     <g id="line2d_10"/>
     <g id="text_5">
      <!-- 2000 -->
      <g style="fill: #262626" transform="translate(261.524441 366.686875) scale(0.1 -0.1)">
       <defs>
        <path id="LiberationSans-32" d="M 322 0 
L 322 397 
Q 481 763 711 1042 
Q 941 1322 1194 1548 
Q 1447 1775 1695 1969 
Q 1944 2163 2144 2356 
Q 2344 2550 2467 2762 
Q 2591 2975 2591 3244 
Q 2591 3606 2378 3806 
Q 2166 4006 1788 4006 
Q 1428 4006 1195 3811 
Q 963 3616 922 3263 
L 347 3316 
Q 409 3844 795 4156 
Q 1181 4469 1788 4469 
Q 2453 4469 2811 4155 
Q 3169 3841 3169 3263 
Q 3169 3006 3051 2753 
Q 2934 2500 2703 2247 
Q 2472 1994 1819 1463 
Q 1459 1169 1246 933 
Q 1034 697 941 478 
L 3238 478 
L 3238 0 
L 322 0 
z
" transform="scale(0.015625)"/>
       </defs>
       <use xlink:href="#LiberationSans-32"/>
       <use xlink:href="#LiberationSans-30" transform="translate(55.615234 0)"/>
       <use xlink:href="#LiberationSans-30" transform="translate(111.230469 0)"/>
       <use xlink:href="#LiberationSans-30" transform="translate(166.845703 0)"/>
      </g>
     </g>
    </g>
    <g id="xtick_6">
     <g id="line2d_11">
      <path d="M 317.753684 352.44 
L 317.753684 47.52 
" clip-path="url(#pa8a85c2229)" style="fill: none; stroke: #ffffff; stroke-linecap: round"/>
     </g>
     <g id="line2d_12"/>
     <g id="text_6">
      <!-- 2005 -->
      <g style="fill: #262626" transform="translate(306.631809 366.686875) scale(0.1 -0.1)">
       <use xlink:href="#LiberationSans-32"/>
       <use xlink:href="#LiberationSans-30" transform="translate(55.615234 0)"/>
       <use xlink:href="#LiberationSans-30" transform="translate(111.230469 0)"/>
       <use xlink:href="#LiberationSans-35" transform="translate(166.845703 0)"/>
      </g>
     </g>
    </g>
    <g id="xtick_7">
     <g id="line2d_13">
      <path d="M 362.836364 352.44 
L 362.836364 47.52 
" clip-path="url(#pa8a85c2229)" style="fill: none; stroke: #ffffff; stroke-linecap: round"/>
     </g>
     <g id="line2d_14"/>
     <g id="text_7">
      <!-- 2010 -->
      <g style="fill: #262626" transform="translate(351.714489 366.686875) scale(0.1 -0.1)">
       <use xlink:href="#LiberationSans-32"/>
       <use xlink:href="#LiberationSans-30" transform="translate(55.615234 0)"/>
       <use xlink:href="#LiberationSans-31" transform="translate(111.230469 0)"/>
       <use xlink:href="#LiberationSans-30" transform="translate(166.845703 0)"/>
      </g>
     </g>
    </g>
    <g id="xtick_8">
     <g id="line2d_15">
      <path d="M 407.919043 352.44 
L 407.919043 47.52 
" clip-path="url(#pa8a85c2229)" style="fill: none; stroke: #ffffff; stroke-linecap: round"/>
     </g>
     <g id="line2d_16"/>
     <g id="text_8">
      <!-- 2015 -->
      <g style="fill: #262626" transform="translate(396.797168 366.686875) scale(0.1 -0.1)">
       <use xlink:href="#LiberationSans-32"/>
       <use xlink:href="#LiberationSans-30" transform="translate(55.615234 0)"/>
       <use xlink:href="#LiberationSans-31" transform="translate(111.230469 0)"/>
       <use xlink:href="#LiberationSans-35" transform="translate(166.845703 0)"/>
      </g>
     </g>
    </g>
    <g id="xtick_9">
     <g id="line2d_17">
      <path d="M 453.001722 352.44 
L 453.001722 47.52 
" clip-path="url(#pa8a85c2229)" style="fill: none; stroke: #ffffff; stroke-linecap: round"/>
     </g>
     <g id="line2d_18"/>
     <g id="text_9">
      <!-- 2020 -->
      <g style="fill: #262626" transform="translate(441.879847 366.686875) scale(0.1 -0.1)">
       <use xlink:href="#LiberationSans-32"/>
       <use xlink:href="#LiberationSans-30" transform="translate(55.615234 0)"/>
       <use xlink:href="#LiberationSans-32" transform="translate(111.230469 0)"/>
       <use xlink:href="#LiberationSans-30" transform="translate(166.845703 0)"/>
      </g>
     </g>
    </g>
    <g id="xtick_10">
     <g id="line2d_19">
      <path d="M 498.109091 352.44 
L 498.109091 47.52 
" clip-path="url(#pa8a85c2229)" style="fill: none; stroke: #ffffff; stroke-linecap: round"/>
     </g>
     <g id="line2d_20"/>
     <g id="text_10">
      <!-- 2025 -->
      <g style="fill: #262626" transform="translate(486.987216 366.686875) scale(0.1 -0.1)">
       <use xlink:href="#LiberationSans-32"/>
       <use xlink:href="#LiberationSans-30" transform="translate(55.615234 0)"/>
       <use xlink:href="#LiberationSans-32" transform="translate(111.230469 0)"/>
       <use xlink:href="#LiberationSans-35" transform="translate(166.845703 0)"/>
      </g>
     </g>
    </g>
    <g id="text_11">
     <!-- date -->
     <g style="fill: #262626" transform="translate(284.496484 380.733437) scale(0.11 -0.11)">
      <defs>
       <path id="LiberationSans-64" d="M 2566 544 
Q 2409 219 2151 78 
Q 1894 -63 1513 -63 
Q 872 -63 570 368 
Q 269 800 269 1675 
Q 269 3444 1513 3444 
Q 1897 3444 2153 3303 
Q 2409 3163 2566 2856 
L 2572 2856 
L 2566 3234 
L 2566 4638 
L 3128 4638 
L 3128 697 
Q 3128 169 3147 0 
L 2609 0 
Q 2600 50 2589 231 
Q 2578 413 2578 544 
L 2566 544 
z
M 859 1694 
Q 859 984 1046 678 
Q 1234 372 1656 372 
Q 2134 372 2350 703 
Q 2566 1034 2566 1731 
Q 2566 2403 2350 2715 
Q 2134 3028 1663 3028 
Q 1238 3028 1048 2714 
Q 859 2400 859 1694 
z
" transform="scale(0.015625)"/>
       <path id="LiberationSans-61" d="M 1294 -63 
Q 784 -63 528 206 
Q 272 475 272 944 
Q 272 1469 617 1750 
Q 963 2031 1731 2050 
L 2491 2063 
L 2491 2247 
Q 2491 2659 2316 2837 
Q 2141 3016 1766 3016 
Q 1388 3016 1216 2887 
Q 1044 2759 1009 2478 
L 422 2531 
Q 566 3444 1778 3444 
Q 2416 3444 2737 3151 
Q 3059 2859 3059 2306 
L 3059 850 
Q 3059 600 3125 473 
Q 3191 347 3375 347 
Q 3456 347 3559 369 
L 3559 19 
Q 3347 -31 3125 -31 
Q 2813 -31 2670 133 
Q 2528 297 2509 647 
L 2491 647 
Q 2275 259 1989 98 
Q 1703 -63 1294 -63 
z
M 1422 359 
Q 1731 359 1972 500 
Q 2213 641 2352 886 
Q 2491 1131 2491 1391 
L 2491 1669 
L 1875 1656 
Q 1478 1650 1273 1575 
Q 1069 1500 959 1344 
Q 850 1188 850 934 
Q 850 659 998 509 
Q 1147 359 1422 359 
z
" transform="scale(0.015625)"/>
       <path id="LiberationSans-74" d="M 1731 25 
Q 1453 -50 1163 -50 
Q 488 -50 488 716 
L 488 2972 
L 97 2972 
L 97 3381 
L 509 3381 
L 675 4138 
L 1050 4138 
L 1050 3381 
L 1675 3381 
L 1675 2972 
L 1050 2972 
L 1050 838 
Q 1050 594 1129 495 
Q 1209 397 1406 397 
Q 1519 397 1731 441 
L 1731 25 
z
" transform="scale(0.015625)"/>
       <path id="LiberationSans-65" d="M 863 1572 
Q 863 991 1103 675 
Q 1344 359 1806 359 
Q 2172 359 2392 506 
Q 2613 653 2691 878 
L 3184 738 
Q 2881 -63 1806 -63 
Q 1056 -63 664 384 
Q 272 831 272 1713 
Q 272 2550 664 2997 
Q 1056 3444 1784 3444 
Q 3275 3444 3275 1647 
L 3275 1572 
L 863 1572 
z
M 2694 2003 
Q 2647 2538 2422 2783 
Q 2197 3028 1775 3028 
Q 1366 3028 1127 2754 
Q 888 2481 869 2003 
L 2694 2003 
z
" transform="scale(0.015625)"/>
      </defs>
      <use xlink:href="#LiberationSans-64"/>
      <use xlink:href="#LiberationSans-61" transform="translate(55.615234 0)"/>
      <use xlink:href="#LiberationSans-74" transform="translate(111.230469 0)"/>
      <use xlink:href="#LiberationSans-65" transform="translate(139.013672 0)"/>
     </g>
    </g>
   </g>
   <g id="matplotlib.axis_2">
    <g id="ytick_1">
     <g id="line2d_21">
      <path d="M 72 352.44 
L 518.4 352.44 
" clip-path="url(#pa8a85c2229)" style="fill: none; stroke: #ffffff; stroke-linecap: round"/>
     </g>
     <g id="line2d_22"/>
     <g id="text_12">
      <!-- 0 -->
      <g style="fill: #262626" transform="translate(59.439062 356.063438) scale(0.1 -0.1)">
       <use xlink:href="#LiberationSans-30"/>
      </g>
     </g>
    </g>
    <g id="ytick_2">
     <g id="line2d_23">
      <path d="M 72 310.954286 
L 518.4 310.954286 
" clip-path="url(#pa8a85c2229)" style="fill: none; stroke: #ffffff; stroke-linecap: round"/>
     </g>
     <g id="line2d_24"/>
     <g id="text_13">
      <!-- 50 -->
      <g style="fill: #262626" transform="translate(53.878125 314.577723) scale(0.1 -0.1)">
       <use xlink:href="#LiberationSans-35"/>
       <use xlink:href="#LiberationSans-30" transform="translate(55.615234 0)"/>
      </g>
     </g>
    </g>
    <g id="ytick_3">
     <g id="line2d_25">
      <path d="M 72 269.468571 
L 518.4 269.468571 
" clip-path="url(#pa8a85c2229)" style="fill: none; stroke: #ffffff; stroke-linecap: round"/>
     </g>
     <g id="line2d_26"/>
     <g id="text_14">
      <!-- 100 -->
      <g style="fill: #262626" transform="translate(48.317188 273.092009) scale(0.1 -0.1)">
       <use xlink:href="#LiberationSans-31"/>
       <use xlink:href="#LiberationSans-30" transform="translate(55.615234 0)"/>
       <use xlink:href="#LiberationSans-30" transform="translate(111.230469 0)"/>
      </g>
     </g>
    </g>
    <g id="ytick_4">
     <g id="line2d_27">
      <path d="M 72 227.982857 
L 518.4 227.982857 
" clip-path="url(#pa8a85c2229)" style="fill: none; stroke: #ffffff; stroke-linecap: round"/>
     </g>
     <g id="line2d_28"/>
     <g id="text_15">
      <!-- 150 -->
      <g style="fill: #262626" transform="translate(48.317188 231.606295) scale(0.1 -0.1)">
       <use xlink:href="#LiberationSans-31"/>
       <use xlink:href="#LiberationSans-35" transform="translate(55.615234 0)"/>
       <use xlink:href="#LiberationSans-30" transform="translate(111.230469 0)"/>
      </g>
     </g>
    </g>
    <g id="ytick_5">
     <g id="line2d_29">
      <path d="M 72 186.497143 
L 518.4 186.497143 
" clip-path="url(#pa8a85c2229)" style="fill: none; stroke: #ffffff; stroke-linecap: round"/>
     </g>
     <g id="line2d_30"/>
     <g id="text_16">
      <!-- 200 -->
      <g style="fill: #262626" transform="translate(48.317188 190.12058) scale(0.1 -0.1)">
       <use xlink:href="#LiberationSans-32"/>
       <use xlink:href="#LiberationSans-30" transform="translate(55.615234 0)"/>
       <use xlink:href="#LiberationSans-30" transform="translate(111.230469 0)"/>
      </g>
     </g>
    </g>
    <g id="ytick_6">
     <g id="line2d_31">
      <path d="M 72 145.011429 
L 518.4 145.011429 
" clip-path="url(#pa8a85c2229)" style="fill: none; stroke: #ffffff; stroke-linecap: round"/>
     </g>
     <g id="line2d_32"/>
     <g id="text_17">
      <!-- 250 -->
      <g style="fill: #262626" transform="translate(48.317188 148.634866) scale(0.1 -0.1)">
       <use xlink:href="#LiberationSans-32"/>
       <use xlink:href="#LiberationSans-35" transform="translate(55.615234 0)"/>
       <use xlink:href="#LiberationSans-30" transform="translate(111.230469 0)"/>
      </g>
     </g>
    </g>
    <g id="ytick_7">
     <g id="line2d_33">
      <path d="M 72 103.525714 
L 518.4 103.525714 
" clip-path="url(#pa8a85c2229)" style="fill: none; stroke: #ffffff; stroke-linecap: round"/>
     </g>
     <g id="line2d_34"/>
     <g id="text_18">
      <!-- 300 -->
      <g style="fill: #262626" transform="translate(48.317188 107.149152) scale(0.1 -0.1)">
       <defs>
        <path id="LiberationSans-33" d="M 3278 1216 
Q 3278 606 2890 271 
Q 2503 -63 1784 -63 
Q 1116 -63 717 239 
Q 319 541 244 1131 
L 825 1184 
Q 938 403 1784 403 
Q 2209 403 2451 612 
Q 2694 822 2694 1234 
Q 2694 1594 2417 1795 
Q 2141 1997 1619 1997 
L 1300 1997 
L 1300 2484 
L 1606 2484 
Q 2069 2484 2323 2686 
Q 2578 2888 2578 3244 
Q 2578 3597 2370 3801 
Q 2163 4006 1753 4006 
Q 1381 4006 1151 3815 
Q 922 3625 884 3278 
L 319 3322 
Q 381 3863 767 4166 
Q 1153 4469 1759 4469 
Q 2422 4469 2789 4161 
Q 3156 3853 3156 3303 
Q 3156 2881 2920 2617 
Q 2684 2353 2234 2259 
L 2234 2247 
Q 2728 2194 3003 1916 
Q 3278 1638 3278 1216 
z
" transform="scale(0.015625)"/>
       </defs>
       <use xlink:href="#LiberationSans-33"/>
       <use xlink:href="#LiberationSans-30" transform="translate(55.615234 0)"/>
       <use xlink:href="#LiberationSans-30" transform="translate(111.230469 0)"/>
      </g>
     </g>
    </g>
    <g id="ytick_8">
     <g id="line2d_35">
      <path d="M 72 62.04 
L 518.4 62.04 
" clip-path="url(#pa8a85c2229)" style="fill: none; stroke: #ffffff; stroke-linecap: round"/>
     </g>
     <g id="line2d_36"/>
     <g id="text_19">
      <!-- 350 -->
      <g style="fill: #262626" transform="translate(48.317188 65.663437) scale(0.1 -0.1)">
       <use xlink:href="#LiberationSans-33"/>
       <use xlink:href="#LiberationSans-35" transform="translate(55.615234 0)"/>
       <use xlink:href="#LiberationSans-30" transform="translate(111.230469 0)"/>
      </g>
     </g>
    </g>
    <g id="text_20">
     <!-- data count -->
     <g style="fill: #262626" transform="translate(42.034688 225.665) rotate(-90) scale(0.11 -0.11)">
      <defs>
       <path id="LiberationSans-20" transform="scale(0.015625)"/>
       <path id="LiberationSans-63" d="M 859 1706 
Q 859 1031 1071 706 
Q 1284 381 1713 381 
Q 2013 381 2214 543 
Q 2416 706 2463 1044 
L 3031 1006 
Q 2966 519 2616 228 
Q 2266 -63 1728 -63 
Q 1019 -63 645 385 
Q 272 834 272 1694 
Q 272 2547 647 2995 
Q 1022 3444 1722 3444 
Q 2241 3444 2583 3175 
Q 2925 2906 3013 2434 
L 2434 2391 
Q 2391 2672 2212 2837 
Q 2034 3003 1706 3003 
Q 1259 3003 1059 2706 
Q 859 2409 859 1706 
z
" transform="scale(0.015625)"/>
       <path id="LiberationSans-6f" d="M 3291 1694 
Q 3291 806 2900 371 
Q 2509 -63 1766 -63 
Q 1025 -63 647 389 
Q 269 841 269 1694 
Q 269 3444 1784 3444 
Q 2559 3444 2925 3017 
Q 3291 2591 3291 1694 
z
M 2700 1694 
Q 2700 2394 2492 2711 
Q 2284 3028 1794 3028 
Q 1300 3028 1079 2704 
Q 859 2381 859 1694 
Q 859 1025 1076 689 
Q 1294 353 1759 353 
Q 2266 353 2483 678 
Q 2700 1003 2700 1694 
z
" transform="scale(0.015625)"/>
       <path id="LiberationSans-75" d="M 981 3381 
L 981 1238 
Q 981 903 1047 718 
Q 1113 534 1256 453 
Q 1400 372 1678 372 
Q 2084 372 2318 650 
Q 2553 928 2553 1422 
L 2553 3381 
L 3116 3381 
L 3116 722 
Q 3116 131 3134 0 
L 2603 0 
Q 2600 16 2597 84 
Q 2594 153 2589 242 
Q 2584 331 2578 578 
L 2569 578 
Q 2375 228 2120 82 
Q 1866 -63 1488 -63 
Q 931 -63 673 214 
Q 416 491 416 1128 
L 416 3381 
L 981 3381 
z
" transform="scale(0.015625)"/>
       <path id="LiberationSans-6e" d="M 2578 0 
L 2578 2144 
Q 2578 2478 2512 2662 
Q 2447 2847 2303 2928 
Q 2159 3009 1881 3009 
Q 1475 3009 1240 2731 
Q 1006 2453 1006 1959 
L 1006 0 
L 444 0 
L 444 2659 
Q 444 3250 425 3381 
L 956 3381 
Q 959 3366 962 3297 
Q 966 3228 970 3139 
Q 975 3050 981 2803 
L 991 2803 
Q 1184 3153 1439 3298 
Q 1694 3444 2072 3444 
Q 2628 3444 2886 3167 
Q 3144 2891 3144 2253 
L 3144 0 
L 2578 0 
z
" transform="scale(0.015625)"/>
      </defs>
      <use xlink:href="#LiberationSans-64"/>
      <use xlink:href="#LiberationSans-61" transform="translate(55.615234 0)"/>
      <use xlink:href="#LiberationSans-74" transform="translate(111.230469 0)"/>
      <use xlink:href="#LiberationSans-61" transform="translate(139.013672 0)"/>
      <use xlink:href="#LiberationSans-20" transform="translate(194.628906 0)"/>
      <use xlink:href="#LiberationSans-63" transform="translate(222.412109 0)"/>
      <use xlink:href="#LiberationSans-6f" transform="translate(272.412109 0)"/>
      <use xlink:href="#LiberationSans-75" transform="translate(328.027344 0)"/>
      <use xlink:href="#LiberationSans-6e" transform="translate(383.642578 0)"/>
      <use xlink:href="#LiberationSans-74" transform="translate(439.257812 0)"/>
     </g>
    </g>
   </g>
   <g id="patch_3">
    <path d="M 92.290909 352.44 
L 99.054545 352.44 
L 99.054545 351.610286 
L 92.290909 351.610286 
z
" clip-path="url(#pa8a85c2229)" style="fill: #4c72b0; opacity: 0.5"/>
   </g>
   <g id="patch_4">
    <path d="M 99.054545 352.44 
L 105.818182 352.44 
L 105.818182 352.44 
L 99.054545 352.44 
z
" clip-path="url(#pa8a85c2229)" style="fill: #4c72b0; opacity: 0.5"/>
   </g>
   <g id="patch_5">
    <path d="M 105.818182 352.44 
L 112.581818 352.44 
L 112.581818 351.610286 
L 105.818182 351.610286 
z
" clip-path="url(#pa8a85c2229)" style="fill: #4c72b0; opacity: 0.5"/>
   </g>
   <g id="patch_6">
    <path d="M 112.581818 352.44 
L 119.345455 352.44 
L 119.345455 352.44 
L 112.581818 352.44 
z
" clip-path="url(#pa8a85c2229)" style="fill: #4c72b0; opacity: 0.5"/>
   </g>
   <g id="patch_7">
    <path d="M 119.345455 352.44 
L 126.109091 352.44 
L 126.109091 352.44 
L 119.345455 352.44 
z
" clip-path="url(#pa8a85c2229)" style="fill: #4c72b0; opacity: 0.5"/>
   </g>
   <g id="patch_8">
    <path d="M 126.109091 352.44 
L 132.872727 352.44 
L 132.872727 352.44 
L 126.109091 352.44 
z
" clip-path="url(#pa8a85c2229)" style="fill: #4c72b0; opacity: 0.5"/>
   </g>
   <g id="patch_9">
    <path d="M 132.872727 352.44 
L 139.636364 352.44 
L 139.636364 352.44 
L 132.872727 352.44 
z
" clip-path="url(#pa8a85c2229)" style="fill: #4c72b0; opacity: 0.5"/>
   </g>
   <g id="patch_10">
    <path d="M 139.636364 352.44 
L 146.4 352.44 
L 146.4 352.44 
L 139.636364 352.44 
z
" clip-path="url(#pa8a85c2229)" style="fill: #4c72b0; opacity: 0.5"/>
   </g>
   <g id="patch_11">
    <path d="M 146.4 352.44 
L 153.163636 352.44 
L 153.163636 352.44 
L 146.4 352.44 
z
" clip-path="url(#pa8a85c2229)" style="fill: #4c72b0; opacity: 0.5"/>
   </g>
   <g id="patch_12">
    <path d="M 153.163636 352.44 
L 159.927273 352.44 
L 159.927273 352.44 
L 153.163636 352.44 
z
" clip-path="url(#pa8a85c2229)" style="fill: #4c72b0; opacity: 0.5"/>
   </g>
   <g id="patch_13">
    <path d="M 159.927273 352.44 
L 166.690909 352.44 
L 166.690909 352.44 
L 159.927273 352.44 
z
" clip-path="url(#pa8a85c2229)" style="fill: #4c72b0; opacity: 0.5"/>
   </g>
   <g id="patch_14">
    <path d="M 166.690909 352.44 
L 173.454545 352.44 
L 173.454545 352.44 
L 166.690909 352.44 
z
" clip-path="url(#pa8a85c2229)" style="fill: #4c72b0; opacity: 0.5"/>
   </g>
   <g id="patch_15">
    <path d="M 173.454545 352.44 
L 180.218182 352.44 
L 180.218182 352.44 
L 173.454545 352.44 
z
" clip-path="url(#pa8a85c2229)" style="fill: #4c72b0; opacity: 0.5"/>
   </g>
   <g id="patch_16">
    <path d="M 180.218182 352.44 
L 186.981818 352.44 
L 186.981818 350.780571 
L 180.218182 350.780571 
z
" clip-path="url(#pa8a85c2229)" style="fill: #4c72b0; opacity: 0.5"/>
   </g>
   <g id="patch_17">
    <path d="M 186.981818 352.44 
L 193.745455 352.44 
L 193.745455 352.44 
L 186.981818 352.44 
z
" clip-path="url(#pa8a85c2229)" style="fill: #4c72b0; opacity: 0.5"/>
   </g>
   <g id="patch_18">
    <path d="M 193.745455 352.44 
L 200.509091 352.44 
L 200.509091 352.44 
L 193.745455 352.44 
z
" clip-path="url(#pa8a85c2229)" style="fill: #4c72b0; opacity: 0.5"/>
   </g>
   <g id="patch_19">
    <path d="M 200.509091 352.44 
L 207.272727 352.44 
L 207.272727 352.44 
L 200.509091 352.44 
z
" clip-path="url(#pa8a85c2229)" style="fill: #4c72b0; opacity: 0.5"/>
   </g>
   <g id="patch_20">
    <path d="M 207.272727 352.44 
L 214.036364 352.44 
L 214.036364 352.44 
L 207.272727 352.44 
z
" clip-path="url(#pa8a85c2229)" style="fill: #4c72b0; opacity: 0.5"/>
   </g>
   <g id="patch_21">
    <path d="M 214.036364 352.44 
L 220.8 352.44 
L 220.8 352.44 
L 214.036364 352.44 
z
" clip-path="url(#pa8a85c2229)" style="fill: #4c72b0; opacity: 0.5"/>
   </g>
   <g id="patch_22">
    <path d="M 220.8 352.44 
L 227.563636 352.44 
L 227.563636 352.44 
L 220.8 352.44 
z
" clip-path="url(#pa8a85c2229)" style="fill: #4c72b0; opacity: 0.5"/>
   </g>
   <g id="patch_23">
    <path d="M 227.563636 352.44 
L 234.327273 352.44 
L 234.327273 352.44 
L 227.563636 352.44 
z
" clip-path="url(#pa8a85c2229)" style="fill: #4c72b0; opacity: 0.5"/>
   </g>
   <g id="patch_24">
    <path d="M 234.327273 352.44 
L 241.090909 352.44 
L 241.090909 333.356571 
L 234.327273 333.356571 
z
" clip-path="url(#pa8a85c2229)" style="fill: #4c72b0; opacity: 0.5"/>
   </g>
   <g id="patch_25">
    <path d="M 241.090909 352.44 
L 247.854545 352.44 
L 247.854545 351.610286 
L 241.090909 351.610286 
z
" clip-path="url(#pa8a85c2229)" style="fill: #4c72b0; opacity: 0.5"/>
   </g>
   <g id="patch_26">
    <path d="M 247.854545 352.44 
L 254.618182 352.44 
L 254.618182 352.44 
L 247.854545 352.44 
z
" clip-path="url(#pa8a85c2229)" style="fill: #4c72b0; opacity: 0.5"/>
   </g>
   <g id="patch_27">
    <path d="M 254.618182 352.44 
L 261.381818 352.44 
L 261.381818 352.44 
L 254.618182 352.44 
z
" clip-path="url(#pa8a85c2229)" style="fill: #4c72b0; opacity: 0.5"/>
   </g>
   <g id="patch_28">
    <path d="M 261.381818 352.44 
L 268.145455 352.44 
L 268.145455 352.44 
L 261.381818 352.44 
z
" clip-path="url(#pa8a85c2229)" style="fill: #4c72b0; opacity: 0.5"/>
   </g>
   <g id="patch_29">
    <path d="M 268.145455 352.44 
L 274.909091 352.44 
L 274.909091 351.610286 
L 268.145455 351.610286 
z
" clip-path="url(#pa8a85c2229)" style="fill: #4c72b0; opacity: 0.5"/>
   </g>
   <g id="patch_30">
    <path d="M 274.909091 352.44 
L 281.672727 352.44 
L 281.672727 352.44 
L 274.909091 352.44 
z
" clip-path="url(#pa8a85c2229)" style="fill: #4c72b0; opacity: 0.5"/>
   </g>
   <g id="patch_31">
    <path d="M 281.672727 352.44 
L 288.436364 352.44 
L 288.436364 351.610286 
L 281.672727 351.610286 
z
" clip-path="url(#pa8a85c2229)" style="fill: #4c72b0; opacity: 0.5"/>
   </g>
   <g id="patch_32">
    <path d="M 288.436364 352.44 
L 295.2 352.44 
L 295.2 349.950857 
L 288.436364 349.950857 
z
" clip-path="url(#pa8a85c2229)" style="fill: #4c72b0; opacity: 0.5"/>
   </g>
   <g id="patch_33">
    <path d="M 295.2 352.44 
L 301.963636 352.44 
L 301.963636 351.610286 
L 295.2 351.610286 
z
" clip-path="url(#pa8a85c2229)" style="fill: #4c72b0; opacity: 0.5"/>
   </g>
   <g id="patch_34">
    <path d="M 301.963636 352.44 
L 308.727273 352.44 
L 308.727273 352.44 
L 301.963636 352.44 
z
" clip-path="url(#pa8a85c2229)" style="fill: #4c72b0; opacity: 0.5"/>
   </g>
   <g id="patch_35">
    <path d="M 308.727273 352.44 
L 315.490909 352.44 
L 315.490909 352.44 
L 308.727273 352.44 
z
" clip-path="url(#pa8a85c2229)" style="fill: #4c72b0; opacity: 0.5"/>
   </g>
   <g id="patch_36">
    <path d="M 315.490909 352.44 
L 322.254545 352.44 
L 322.254545 351.610286 
L 315.490909 351.610286 
z
" clip-path="url(#pa8a85c2229)" style="fill: #4c72b0; opacity: 0.5"/>
   </g>
   <g id="patch_37">
    <path d="M 322.254545 352.44 
L 329.018182 352.44 
L 329.018182 352.44 
L 322.254545 352.44 
z
" clip-path="url(#pa8a85c2229)" style="fill: #4c72b0; opacity: 0.5"/>
   </g>
   <g id="patch_38">
    <path d="M 329.018182 352.44 
L 335.781818 352.44 
L 335.781818 352.44 
L 329.018182 352.44 
z
" clip-path="url(#pa8a85c2229)" style="fill: #4c72b0; opacity: 0.5"/>
   </g>
   <g id="patch_39">
    <path d="M 335.781818 352.44 
L 342.545455 352.44 
L 342.545455 352.44 
L 335.781818 352.44 
z
" clip-path="url(#pa8a85c2229)" style="fill: #4c72b0; opacity: 0.5"/>
   </g>
   <g id="patch_40">
    <path d="M 342.545455 352.44 
L 349.309091 352.44 
L 349.309091 352.44 
L 342.545455 352.44 
z
" clip-path="url(#pa8a85c2229)" style="fill: #4c72b0; opacity: 0.5"/>
   </g>
   <g id="patch_41">
    <path d="M 349.309091 352.44 
L 356.072727 352.44 
L 356.072727 348.291429 
L 349.309091 348.291429 
z
" clip-path="url(#pa8a85c2229)" style="fill: #4c72b0; opacity: 0.5"/>
   </g>
   <g id="patch_42">
    <path d="M 356.072727 352.44 
L 362.836364 352.44 
L 362.836364 352.44 
L 356.072727 352.44 
z
" clip-path="url(#pa8a85c2229)" style="fill: #4c72b0; opacity: 0.5"/>
   </g>
   <g id="patch_43">
    <path d="M 362.836364 352.44 
L 369.6 352.44 
L 369.6 352.44 
L 362.836364 352.44 
z
" clip-path="url(#pa8a85c2229)" style="fill: #4c72b0; opacity: 0.5"/>
   </g>
   <g id="patch_44">
    <path d="M 369.6 352.44 
L 376.363636 352.44 
L 376.363636 351.610286 
L 369.6 351.610286 
z
" clip-path="url(#pa8a85c2229)" style="fill: #4c72b0; opacity: 0.5"/>
   </g>
   <g id="patch_45">
    <path d="M 376.363636 352.44 
L 383.127273 352.44 
L 383.127273 352.44 
L 376.363636 352.44 
z
" clip-path="url(#pa8a85c2229)" style="fill: #4c72b0; opacity: 0.5"/>
   </g>
   <g id="patch_46">
    <path d="M 383.127273 352.44 
L 389.890909 352.44 
L 389.890909 352.44 
L 383.127273 352.44 
z
" clip-path="url(#pa8a85c2229)" style="fill: #4c72b0; opacity: 0.5"/>
   </g>
   <g id="patch_47">
    <path d="M 389.890909 352.44 
L 396.654545 352.44 
L 396.654545 351.610286 
L 389.890909 351.610286 
z
" clip-path="url(#pa8a85c2229)" style="fill: #4c72b0; opacity: 0.5"/>
   </g>
   <g id="patch_48">
    <path d="M 396.654545 352.44 
L 403.418182 352.44 
L 403.418182 351.610286 
L 396.654545 351.610286 
z
" clip-path="url(#pa8a85c2229)" style="fill: #4c72b0; opacity: 0.5"/>
   </g>
   <g id="patch_49">
    <path d="M 403.418182 352.44 
L 410.181818 352.44 
L 410.181818 351.610286 
L 403.418182 351.610286 
z
" clip-path="url(#pa8a85c2229)" style="fill: #4c72b0; opacity: 0.5"/>
   </g>
   <g id="patch_50">
    <path d="M 410.181818 352.44 
L 416.945455 352.44 
L 416.945455 351.610286 
L 410.181818 351.610286 
z
" clip-path="url(#pa8a85c2229)" style="fill: #4c72b0; opacity: 0.5"/>
   </g>
   <g id="patch_51">
    <path d="M 416.945455 352.44 
L 423.709091 352.44 
L 423.709091 352.44 
L 416.945455 352.44 
z
" clip-path="url(#pa8a85c2229)" style="fill: #4c72b0; opacity: 0.5"/>
   </g>
   <g id="patch_52">
    <path d="M 423.709091 352.44 
L 430.472727 352.44 
L 430.472727 352.44 
L 423.709091 352.44 
z
" clip-path="url(#pa8a85c2229)" style="fill: #4c72b0; opacity: 0.5"/>
   </g>
   <g id="patch_53">
    <path d="M 430.472727 352.44 
L 437.236364 352.44 
L 437.236364 350.780571 
L 430.472727 350.780571 
z
" clip-path="url(#pa8a85c2229)" style="fill: #4c72b0; opacity: 0.5"/>
   </g>
   <g id="patch_54">
    <path d="M 437.236364 352.44 
L 444 352.44 
L 444 351.610286 
L 437.236364 351.610286 
z
" clip-path="url(#pa8a85c2229)" style="fill: #4c72b0; opacity: 0.5"/>
   </g>
   <g id="patch_55">
    <path d="M 444 352.44 
L 450.763636 352.44 
L 450.763636 352.44 
L 444 352.44 
z
" clip-path="url(#pa8a85c2229)" style="fill: #4c72b0; opacity: 0.5"/>
   </g>
   <g id="patch_56">
    <path d="M 450.763636 352.44 
L 457.527273 352.44 
L 457.527273 352.44 
L 450.763636 352.44 
z
" clip-path="url(#pa8a85c2229)" style="fill: #4c72b0; opacity: 0.5"/>
   </g>
   <g id="patch_57">
    <path d="M 457.527273 352.44 
L 464.290909 352.44 
L 464.290909 352.44 
L 457.527273 352.44 
z
" clip-path="url(#pa8a85c2229)" style="fill: #4c72b0; opacity: 0.5"/>
   </g>
   <g id="patch_58">
    <path d="M 464.290909 352.44 
L 471.054545 352.44 
L 471.054545 352.44 
L 464.290909 352.44 
z
" clip-path="url(#pa8a85c2229)" style="fill: #4c72b0; opacity: 0.5"/>
   </g>
   <g id="patch_59">
    <path d="M 471.054545 352.44 
L 477.818182 352.44 
L 477.818182 352.44 
L 471.054545 352.44 
z
" clip-path="url(#pa8a85c2229)" style="fill: #4c72b0; opacity: 0.5"/>
   </g>
   <g id="patch_60">
    <path d="M 477.818182 352.44 
L 484.581818 352.44 
L 484.581818 62.04 
L 477.818182 62.04 
z
" clip-path="url(#pa8a85c2229)" style="fill: #4c72b0; opacity: 0.5"/>
   </g>
   <g id="patch_61">
    <path d="M 484.581818 352.44 
L 491.345455 352.44 
L 491.345455 345.802286 
L 484.581818 345.802286 
z
" clip-path="url(#pa8a85c2229)" style="fill: #4c72b0; opacity: 0.5"/>
   </g>
   <g id="patch_62">
    <path d="M 491.345455 352.44 
L 498.109091 352.44 
L 498.109091 344.142857 
L 491.345455 344.142857 
z
" clip-path="url(#pa8a85c2229)" style="fill: #4c72b0; opacity: 0.5"/>
   </g>
   <g id="patch_63">
    <path d="M 72 352.44 
L 72 47.52 
" style="fill: none"/>
   </g>
   <g id="patch_64">
    <path d="M 518.4 352.44 
L 518.4 47.52 
" style="fill: none"/>
   </g>
   <g id="patch_65">
    <path d="M 72 352.44 
L 518.4 352.44 
" style="fill: none"/>
   </g>
   <g id="patch_66">
    <path d="M 72 47.52 
L 518.4 47.52 
" style="fill: none"/>
   </g>
  </g>
  <g id="axes_2">
   <g id="matplotlib.axis_3">
    <g id="ytick_9">
     <g id="line2d_37">
      <path d="M 72 339.247952 
L 518.4 339.247952 
" clip-path="url(#pa8a85c2229)" style="fill: none; stroke: #ffffff; stroke-linecap: round"/>
     </g>
     <g id="line2d_38"/>
     <g id="text_21">
      <!-- 0 -->
      <g style="fill: #262626" transform="translate(525.4 342.871389) scale(0.1 -0.1)">
       <use xlink:href="#LiberationSans-30"/>
      </g>
     </g>
    </g>
    <g id="ytick_10">
     <g id="line2d_39">
      <path d="M 72 272.452771 
L 518.4 272.452771 
" clip-path="url(#pa8a85c2229)" style="fill: none; stroke: #ffffff; stroke-linecap: round"/>
     </g>
     <g id="line2d_40"/>
     <g id="text_22">
      <!-- 100 -->
      <g style="fill: #262626" transform="translate(525.4 276.076209) scale(0.1 -0.1)">
       <use xlink:href="#LiberationSans-31"/>
       <use xlink:href="#LiberationSans-30" transform="translate(55.615234 0)"/>
       <use xlink:href="#LiberationSans-30" transform="translate(111.230469 0)"/>
      </g>
     </g>
    </g>
    <g id="ytick_11">
     <g id="line2d_41">
      <path d="M 72 205.65759 
L 518.4 205.65759 
" clip-path="url(#pa8a85c2229)" style="fill: none; stroke: #ffffff; stroke-linecap: round"/>
     </g>
     <g id="line2d_42"/>
     <g id="text_23">
      <!-- 200 -->
      <g style="fill: #262626" transform="translate(525.4 209.281028) scale(0.1 -0.1)">
       <use xlink:href="#LiberationSans-32"/>
       <use xlink:href="#LiberationSans-30" transform="translate(55.615234 0)"/>
       <use xlink:href="#LiberationSans-30" transform="translate(111.230469 0)"/>
      </g>
     </g>
    </g>
    <g id="ytick_12">
     <g id="line2d_43">
      <path d="M 72 138.86241 
L 518.4 138.86241 
" clip-path="url(#pa8a85c2229)" style="fill: none; stroke: #ffffff; stroke-linecap: round"/>
     </g>
     <g id="line2d_44"/>
     <g id="text_24">
      <!-- 300 -->
      <g style="fill: #262626" transform="translate(525.4 142.485847) scale(0.1 -0.1)">
       <use xlink:href="#LiberationSans-33"/>
       <use xlink:href="#LiberationSans-30" transform="translate(55.615234 0)"/>
       <use xlink:href="#LiberationSans-30" transform="translate(111.230469 0)"/>
      </g>
     </g>
    </g>
    <g id="ytick_13">
     <g id="line2d_45">
      <path d="M 72 72.067229 
L 518.4 72.067229 
" clip-path="url(#pa8a85c2229)" style="fill: none; stroke: #ffffff; stroke-linecap: round"/>
     </g>
     <g id="line2d_46"/>
     <g id="text_25">
      <!-- 400 -->
      <g style="fill: #262626" transform="translate(525.4 75.690666) scale(0.1 -0.1)">
       <defs>
        <path id="LiberationSans-34" d="M 2753 997 
L 2753 0 
L 2222 0 
L 2222 997 
L 147 997 
L 147 1434 
L 2163 4403 
L 2753 4403 
L 2753 1441 
L 3372 1441 
L 3372 997 
L 2753 997 
z
M 2222 3769 
Q 2216 3750 2134 3603 
Q 2053 3456 2013 3397 
L 884 1734 
L 716 1503 
L 666 1441 
L 2222 1441 
L 2222 3769 
z
" transform="scale(0.015625)"/>
       </defs>
       <use xlink:href="#LiberationSans-34"/>
       <use xlink:href="#LiberationSans-30" transform="translate(55.615234 0)"/>
       <use xlink:href="#LiberationSans-30" transform="translate(111.230469 0)"/>
      </g>
     </g>
    </g>
    <g id="text_26">
     <!-- cumulative data count -->
     <g style="fill: #262626" transform="translate(554.054375 253.480391) rotate(-90) scale(0.11 -0.11)">
      <defs>
       <path id="LiberationSans-6d" d="M 2400 0 
L 2400 2144 
Q 2400 2634 2265 2821 
Q 2131 3009 1781 3009 
Q 1422 3009 1212 2734 
Q 1003 2459 1003 1959 
L 1003 0 
L 444 0 
L 444 2659 
Q 444 3250 425 3381 
L 956 3381 
Q 959 3366 962 3297 
Q 966 3228 970 3139 
Q 975 3050 981 2803 
L 991 2803 
Q 1172 3163 1406 3303 
Q 1641 3444 1978 3444 
Q 2363 3444 2586 3291 
Q 2809 3138 2897 2803 
L 2906 2803 
Q 3081 3144 3329 3294 
Q 3578 3444 3931 3444 
Q 4444 3444 4676 3166 
Q 4909 2888 4909 2253 
L 4909 0 
L 4353 0 
L 4353 2144 
Q 4353 2634 4218 2821 
Q 4084 3009 3734 3009 
Q 3366 3009 3161 2736 
Q 2956 2463 2956 1959 
L 2956 0 
L 2400 0 
z
" transform="scale(0.015625)"/>
       <path id="LiberationSans-6c" d="M 431 0 
L 431 4638 
L 994 4638 
L 994 0 
L 431 0 
z
" transform="scale(0.015625)"/>
       <path id="LiberationSans-69" d="M 428 4100 
L 428 4638 
L 991 4638 
L 991 4100 
L 428 4100 
z
M 428 0 
L 428 3381 
L 991 3381 
L 991 0 
L 428 0 
z
" transform="scale(0.015625)"/>
       <path id="LiberationSans-76" d="M 1916 0 
L 1250 0 
L 22 3381 
L 622 3381 
L 1366 1181 
Q 1406 1056 1581 441 
L 1691 806 
L 1813 1175 
L 2581 3381 
L 3178 3381 
L 1916 0 
z
" transform="scale(0.015625)"/>
      </defs>
      <use xlink:href="#LiberationSans-63"/>
      <use xlink:href="#LiberationSans-75" transform="translate(50 0)"/>
      <use xlink:href="#LiberationSans-6d" transform="translate(105.615234 0)"/>
      <use xlink:href="#LiberationSans-75" transform="translate(188.916016 0)"/>
      <use xlink:href="#LiberationSans-6c" transform="translate(244.53125 0)"/>
      <use xlink:href="#LiberationSans-61" transform="translate(266.748047 0)"/>
      <use xlink:href="#LiberationSans-74" transform="translate(322.363281 0)"/>
      <use xlink:href="#LiberationSans-69" transform="translate(350.146484 0)"/>
      <use xlink:href="#LiberationSans-76" transform="translate(372.363281 0)"/>
      <use xlink:href="#LiberationSans-65" transform="translate(422.363281 0)"/>
      <use xlink:href="#LiberationSans-20" transform="translate(477.978516 0)"/>
      <use xlink:href="#LiberationSans-64" transform="translate(505.761719 0)"/>
      <use xlink:href="#LiberationSans-61" transform="translate(561.376953 0)"/>
      <use xlink:href="#LiberationSans-74" transform="translate(616.992188 0)"/>
      <use xlink:href="#LiberationSans-61" transform="translate(644.775391 0)"/>
      <use xlink:href="#LiberationSans-20" transform="translate(700.390625 0)"/>
      <use xlink:href="#LiberationSans-63" transform="translate(728.173828 0)"/>
      <use xlink:href="#LiberationSans-6f" transform="translate(778.173828 0)"/>
      <use xlink:href="#LiberationSans-75" transform="translate(833.789062 0)"/>
      <use xlink:href="#LiberationSans-6e" transform="translate(889.404297 0)"/>
      <use xlink:href="#LiberationSans-74" transform="translate(945.019531 0)"/>
     </g>
    </g>
   </g>
   <g id="line2d_47">
    <path d="M 92.290909 338.58 
L 110.338794 337.912048 
L 182.480957 336.576145 
L 236.575234 321.213253 
L 245.611522 320.545301 
L 272.646316 319.877349 
L 281.682603 319.209398 
L 290.694201 317.205542 
L 299.705799 316.53759 
L 317.753684 315.869639 
L 353.824766 312.52988 
L 371.847962 311.861928 
L 389.895847 311.193976 
L 398.907445 310.526024 
L 407.919043 309.858072 
L 416.930641 309.19012 
L 434.978526 307.854217 
L 443.990124 307.186265 
L 480.061206 73.403133 
L 489.072804 68.059518 
L 498.109091 61.38 
" clip-path="url(#pa8a85c2229)" style="fill: none; stroke: #4c72b0; stroke-width: 1.75; stroke-linecap: round"/>
   </g>
   <g id="patch_67">
    <path d="M 72 352.44 
L 72 47.52 
" style="fill: none"/>
   </g>
   <g id="patch_68">
    <path d="M 518.4 352.44 
L 518.4 47.52 
" style="fill: none"/>
   </g>
   <g id="patch_69">
    <path d="M 72 352.44 
L 518.4 352.44 
" style="fill: none"/>
   </g>
   <g id="patch_70">
    <path d="M 72 47.52 
L 518.4 47.52 
" style="fill: none"/>
   </g>
  </g>
 </g>
 <defs>
  <clipPath id="pa8a85c2229">
   <rect x="72" y="47.52" width="446.4" height="304.92"/>
  </clipPath>
 </defs>
</svg>
